
<svg width="158" height="108" viewBox="0 0 158 108" fill="none" xmlns="http://www.w3.org/2000/svg">
<g filter="url(#filter0_d_32_29)">
<rect x="4" width="150" height="100" rx="50" fill="#ECECEC"/>
<path d="M41.23 84.38C41.0767 84.4333 40.9133 84.4833 40.74 84.53C40.5733 84.5767 40.3833 84.6 40.17 84.6C39.8233 84.6 39.48 84.5067 39.14 84.32C38.8 84.14 38.51 83.88 38.27 83.54C38.03 83.1933 37.8467 82.8 37.72 82.36C37.6 81.92 37.54 81.47 37.54 81.01C37.54 80.55 37.6 80.1 37.72 79.66C37.8467 79.22 38.0267 78.8367 38.26 78.51C38.5 78.1833 38.79 77.9267 39.13 77.74C39.4767 77.5533 39.8233 77.46 40.17 77.46C40.33 77.46 40.5 77.4767 40.68 77.51C40.8667 77.5367 41.0533 77.5867 41.24 77.66C41.2933 77.68 41.3233 77.7033 41.33 77.73C41.3433 77.7567 41.3467 77.8033 41.34 77.87L41.33 78.63C41.33 78.7233 41.3167 78.7733 41.29 78.78C41.2633 78.78 41.2167 78.7667 41.15 78.74C40.8433 78.5867 40.5167 78.51 40.17 78.51C39.9367 78.51 39.72 78.5767 39.52 78.71C39.32 78.8367 39.1567 79.0267 39.03 79.28C38.9033 79.5267 38.8067 79.8067 38.74 80.12C38.6733 80.4267 38.64 80.7233 38.64 81.01C38.64 81.2967 38.6767 81.6 38.75 81.92C38.8233 82.2333 38.9233 82.5133 39.05 82.76C39.1767 83.0067 39.3467 83.2 39.56 83.34C39.7733 83.48 39.9867 83.55 40.2 83.55C40.3533 83.55 40.5067 83.5333 40.66 83.5C40.82 83.4667 40.9833 83.4167 41.15 83.35C41.2167 83.3167 41.26 83.3067 41.28 83.32C41.3 83.3333 41.31 83.36 41.31 83.4L41.34 84.17C41.3467 84.23 41.3433 84.2733 41.33 84.3C41.3167 84.3333 41.2833 84.36 41.23 84.38ZM46.07 83.8C45.8767 84.08 45.6467 84.29 45.38 84.43C45.12 84.5767 44.8267 84.65 44.5 84.65C44.1667 84.65 43.87 84.58 43.61 84.44C43.3567 84.3 43.14 84.1067 42.96 83.86C42.7867 83.6067 42.6567 83.3167 42.57 82.99C42.4833 82.6633 42.44 82.3133 42.44 81.94C42.44 81.5667 42.4833 81.2167 42.57 80.89C42.6567 80.5633 42.7867 80.2767 42.96 80.03C43.14 79.7833 43.3567 79.59 43.61 79.45C43.8633 79.31 44.16 79.24 44.5 79.24C44.8333 79.24 45.1267 79.31 45.38 79.45C45.64 79.59 45.8567 79.7833 46.03 80.03C46.21 80.2767 46.3433 80.5633 46.43 80.89C46.5167 81.2167 46.56 81.5667 46.56 81.94C46.56 82.3067 46.5167 82.65 46.43 82.97C46.3433 83.29 46.2233 83.5667 46.07 83.8ZM44.5 80.22C44.3267 80.22 44.18 80.27 44.06 80.37C43.94 80.47 43.84 80.6033 43.76 80.77C43.6867 80.93 43.6267 81.1133 43.58 81.32C43.54 81.5267 43.52 81.7333 43.52 81.94C43.52 82.1533 43.54 82.3633 43.58 82.57C43.6267 82.77 43.6867 82.9533 43.76 83.12C43.84 83.2867 43.94 83.42 44.06 83.52C44.18 83.62 44.3267 83.67 44.5 83.67C44.6667 83.67 44.81 83.62 44.93 83.52C45.0567 83.42 45.1567 83.2867 45.23 83.12C45.31 82.9533 45.37 82.77 45.41 82.57C45.4567 82.3633 45.48 82.1533 45.48 81.94C45.48 81.7333 45.4567 81.53 45.41 81.33C45.37 81.1233 45.31 80.94 45.23 80.78C45.1567 80.6133 45.0567 80.48 44.93 80.38C44.81 80.2733 44.6667 80.22 44.5 80.22ZM50.81 84.5C50.79 84.5 50.7733 84.4833 50.76 84.45C50.7467 84.4233 50.74 84.3933 50.74 84.36V81.29C50.74 80.9567 50.7167 80.7 50.67 80.52C50.6233 80.3333 50.5467 80.24 50.44 80.24C50.3733 80.24 50.3133 80.2767 50.26 80.35C50.2067 80.4233 50.1633 80.5433 50.13 80.71C50.1033 80.8767 50.09 81.0533 50.09 81.24C50.09 81.42 50.09 81.6267 50.09 81.86V84.27C50.09 84.3567 50.07 84.4 50.03 84.4H49.23C49.21 84.4 49.1933 84.3833 49.18 84.35C49.1667 84.3233 49.16 84.2933 49.16 84.26V81.29C49.1533 80.59 49.0467 80.24 48.84 80.24C48.72 80.24 48.6333 80.3533 48.58 80.58C48.5333 80.8067 48.51 81.1167 48.51 81.51V84.37C48.51 84.4567 48.4867 84.5 48.44 84.5H47.61C47.5967 84.5 47.5833 84.4833 47.57 84.45C47.5567 84.4233 47.55 84.3933 47.55 84.36V80.77C47.55 80.5167 47.5467 80.2733 47.54 80.04C47.54 79.8067 47.5367 79.6233 47.53 79.49C47.5233 79.4033 47.55 79.36 47.61 79.36H48.35C48.39 79.36 48.41 79.3867 48.41 79.44L48.4 79.84C48.44 79.6533 48.5167 79.5067 48.63 79.4C48.7433 79.2933 48.8633 79.24 48.99 79.24C49.17 79.24 49.33 79.32 49.47 79.48C49.6167 79.64 49.7067 79.8767 49.74 80.19C49.8267 79.87 49.9467 79.6333 50.1 79.48C50.2533 79.32 50.43 79.24 50.63 79.24C50.9367 79.24 51.19 79.41 51.39 79.75C51.5967 80.0833 51.7 80.5533 51.7 81.16V84.37C51.7 84.4033 51.6933 84.4333 51.68 84.46C51.6667 84.4867 51.65 84.5 51.63 84.5H50.81ZM54.76 79.24C55.0667 79.24 55.3333 79.3067 55.56 79.44C55.7933 79.5667 55.99 79.75 56.15 79.99C56.3167 80.2233 56.4433 80.5133 56.53 80.86C56.6167 81.2 56.66 81.5633 56.66 81.95C56.66 82.2433 56.6133 82.57 56.52 82.93C56.4333 83.2833 56.3067 83.5867 56.14 83.84C55.98 84.0933 55.7833 84.2867 55.55 84.42C55.3233 84.56 55.06 84.63 54.76 84.63C54.54 84.63 54.33 84.5767 54.13 84.47C53.9367 84.37 53.7667 84.2167 53.62 84.01V85.87C53.62 85.9233 53.6133 85.9567 53.6 85.97C53.5867 85.9833 53.56 85.99 53.52 85.99H52.66C52.5867 85.99 52.55 85.95 52.55 85.87V79.51C52.55 79.41 52.5967 79.36 52.69 79.36H53.49C53.5767 79.36 53.62 79.41 53.62 79.51V79.9C53.7333 79.7 53.8967 79.54 54.11 79.42C54.3233 79.3 54.54 79.24 54.76 79.24ZM54.53 83.61C54.85 83.61 55.0967 83.4433 55.27 83.11C55.4433 82.7767 55.53 82.39 55.53 81.95C55.53 81.4767 55.44 81.0767 55.26 80.75C55.08 80.4167 54.8367 80.25 54.53 80.25C54.4033 80.25 54.28 80.2933 54.16 80.38C54.04 80.4667 53.9333 80.59 53.84 80.75C53.7533 80.91 53.6867 81.1033 53.64 81.33C53.5933 81.55 53.57 81.7567 53.57 81.95C53.57 82.4233 53.6533 82.82 53.82 83.14C53.9933 83.4533 54.23 83.61 54.53 83.61ZM60.54 84.5C60.5133 84.5 60.4867 84.49 60.46 84.47C60.44 84.4567 60.43 84.4333 60.43 84.4V83.99C60.3033 84.21 60.14 84.3767 59.94 84.49C59.7467 84.6033 59.52 84.66 59.26 84.66C58.76 84.66 58.3467 84.47 58.02 84.09C57.7 83.71 57.54 83.1667 57.54 82.46V79.5C57.54 79.4667 57.55 79.4367 57.57 79.41C57.5967 79.3767 57.6233 79.36 57.65 79.36H58.5C58.5267 79.36 58.55 79.3767 58.57 79.41C58.5967 79.4433 58.61 79.4767 58.61 79.51V82.3C58.61 82.8 58.68 83.1533 58.82 83.36C58.96 83.5667 59.1467 83.67 59.38 83.67C59.6667 83.67 59.9033 83.5333 60.09 83.26C60.2767 82.9867 60.37 82.58 60.37 82.04V79.5C60.37 79.4667 60.38 79.4367 60.4 79.41C60.4267 79.3767 60.46 79.36 60.5 79.36H61.33C61.3567 79.36 61.38 79.38 61.4 79.42C61.4267 79.4533 61.44 79.4867 61.44 79.52V83.21C61.44 83.4167 61.4433 83.62 61.45 83.82C61.4567 84.02 61.46 84.2033 61.46 84.37C61.46 84.4567 61.4233 84.5 61.35 84.5H60.54ZM66.46 84.39C66.2133 84.4767 65.9633 84.54 65.71 84.58C65.4633 84.62 65.2533 84.6367 65.08 84.63C64.7333 84.63 64.4567 84.57 64.25 84.45C64.0433 84.3367 63.9 84.2033 63.82 84.05C63.7267 83.8767 63.67 83.6733 63.65 83.44C63.63 83.2067 63.62 82.89 63.62 82.49V80.6H62.52C62.4867 80.6 62.4567 80.59 62.43 80.57C62.41 80.5433 62.4 80.5133 62.4 80.48V79.69C62.4 79.6567 62.41 79.63 62.43 79.61C62.4567 79.5833 62.4867 79.57 62.52 79.57H63.62V78.12C63.62 78.0867 63.6333 78.06 63.66 78.04C63.6867 78.0133 63.7167 78 63.75 78H64.56C64.6 78 64.63 78.0133 64.65 78.04C64.6767 78.06 64.69 78.0867 64.69 78.12V79.57H66.37C66.4033 79.57 66.43 79.5833 66.45 79.61C66.4767 79.63 66.49 79.6567 66.49 79.69V80.48C66.49 80.5133 66.4767 80.5433 66.45 80.57C66.43 80.59 66.4033 80.6 66.37 80.6H64.69V82.55C64.69 82.9833 64.7 83.26 64.72 83.38C64.7333 83.5067 64.7933 83.5833 64.9 83.61C65.0133 83.6367 65.1633 83.65 65.35 83.65C65.5033 83.65 65.6633 83.6333 65.83 83.6C65.9967 83.5667 66.16 83.5233 66.32 83.47C66.3533 83.4567 66.3767 83.4567 66.39 83.47C66.4033 83.4767 66.4167 83.5067 66.43 83.56L66.51 84.27C66.5167 84.3167 66.5 84.3567 66.46 84.39ZM71.49 82.23C71.49 82.2833 71.4767 82.3233 71.45 82.35C71.43 82.37 71.4 82.38 71.36 82.38H68.62C68.6267 82.7333 68.7167 83.0367 68.89 83.29C69.07 83.5367 69.3567 83.66 69.75 83.66C69.99 83.66 70.2 83.6333 70.38 83.58C70.5667 83.52 70.7567 83.42 70.95 83.28C71.0033 83.2533 71.0333 83.2567 71.04 83.29C71.0533 83.3233 71.06 83.3633 71.06 83.41V84.12C71.06 84.18 71.05 84.2233 71.03 84.25C71.01 84.2833 70.9767 84.3167 70.93 84.35C70.7567 84.4433 70.58 84.5167 70.4 84.57C70.2267 84.6233 70.01 84.65 69.75 84.65C68.99 84.65 68.4233 84.4067 68.05 83.92C67.6767 83.4333 67.49 82.79 67.49 81.99C67.49 81.65 67.53 81.32 67.61 81C67.69 80.6733 67.8133 80.38 67.98 80.12C68.1533 79.86 68.37 79.6467 68.63 79.48C68.89 79.3133 69.19 79.23 69.53 79.23C69.89 79.23 70.1933 79.3067 70.44 79.46C70.6933 79.6133 70.8967 79.8167 71.05 80.07C71.21 80.3167 71.3233 80.6 71.39 80.92C71.4633 81.24 71.5 81.5867 71.5 81.96C71.5 82.0067 71.4967 82.06 71.49 82.12C71.49 82.1733 71.49 82.21 71.49 82.23ZM69.51 80.19C69.35 80.19 69.2067 80.2367 69.08 80.33C68.96 80.4167 68.8633 80.5367 68.79 80.69C68.7233 80.8367 68.6767 80.9733 68.65 81.1C68.63 81.22 68.62 81.3167 68.62 81.39H70.41C70.41 81.3167 70.3967 81.22 70.37 81.1C70.35 80.9733 70.3033 80.8367 70.23 80.69C70.1633 80.5367 70.0667 80.4167 69.94 80.33C69.8133 80.2367 69.67 80.19 69.51 80.19ZM72.57 84.5C72.5367 84.5 72.5067 84.4867 72.48 84.46C72.46 84.44 72.45 84.41 72.45 84.37V83.59C72.45 83.5567 72.46 83.53 72.48 83.51C72.5067 83.4833 72.5367 83.47 72.57 83.47H73.2V80.71V80.36H72.38C72.3467 80.36 72.3167 80.35 72.29 80.33C72.27 80.3033 72.26 80.27 72.26 80.23V79.48C72.26 79.4467 72.27 79.42 72.29 79.4C72.3167 79.3733 72.3467 79.36 72.38 79.36H74.02C74.0467 79.36 74.0667 79.37 74.08 79.39C74.1 79.4033 74.11 79.4233 74.11 79.45V80.3C74.1767 80.16 74.2467 80.04 74.32 79.94C74.4 79.8333 74.4833 79.74 74.57 79.66C74.6633 79.5733 74.7667 79.4967 74.88 79.43C75 79.3567 75.1733 79.2933 75.4 79.24C75.6867 79.1933 75.9633 79.2 76.23 79.26C76.5033 79.32 76.73 79.4233 76.91 79.57C76.9433 79.6033 76.9567 79.6333 76.95 79.66C76.9433 79.6867 76.9367 79.7133 76.93 79.74L76.6 80.42C76.5867 80.46 76.5633 80.4867 76.53 80.5C76.5033 80.5133 76.4667 80.5067 76.42 80.48C76.2667 80.3933 76.0967 80.3333 75.91 80.3C75.7233 80.2667 75.54 80.2667 75.36 80.3C75.0467 80.36 74.8 80.51 74.62 80.75C74.44 80.99 74.33 81.2333 74.29 81.48C74.25 81.7267 74.23 82.0167 74.23 82.35V83.47H75.27C75.3033 83.47 75.33 83.4833 75.35 83.51C75.3767 83.53 75.39 83.5567 75.39 83.59V84.37C75.39 84.4567 75.35 84.5 75.27 84.5H72.57ZM85.95 84.04C85.7767 84.2067 85.5567 84.35 85.29 84.47C85.03 84.59 84.7867 84.6567 84.56 84.67C84.4 84.6833 84.24 84.6833 84.08 84.67C83.9267 84.6633 83.76 84.6433 83.58 84.61C83.4 84.5767 83.2367 84.5433 83.09 84.51C82.95 84.4767 82.8433 84.4433 82.77 84.41C82.67 84.37 82.61 84.34 82.59 84.32C82.57 84.3 82.5667 84.2533 82.58 84.18L82.65 83.49C82.6633 83.4433 82.68 83.4133 82.7 83.4C82.7267 83.3867 82.78 83.3967 82.86 83.43C82.9267 83.4567 83.0333 83.4933 83.18 83.54C83.3333 83.5867 83.4933 83.6233 83.66 83.65C83.8333 83.6767 83.9933 83.6933 84.14 83.7C84.2867 83.7067 84.4333 83.6933 84.58 83.66C84.86 83.6067 85.0667 83.4967 85.2 83.33C85.3333 83.1633 85.4 82.9633 85.4 82.73C85.4 82.5033 85.3167 82.2967 85.15 82.11C84.9833 81.9167 84.7933 81.7467 84.58 81.6C84.2933 81.4067 84.0167 81.22 83.75 81.04C83.4833 80.8533 83.2633 80.67 83.09 80.49C82.9167 80.3033 82.7867 80.1167 82.7 79.93C82.62 79.7433 82.58 79.5367 82.58 79.31C82.58 79.07 82.64 78.8367 82.76 78.61C82.88 78.3833 83.04 78.1833 83.24 78.01C83.44 77.83 83.66 77.6933 83.9 77.6C84.1467 77.5067 84.4367 77.46 84.77 77.46C85.0433 77.46 85.29 77.4833 85.51 77.53C85.73 77.57 85.92 77.6133 86.08 77.66C86.1533 77.6933 86.1933 77.7233 86.2 77.75C86.2133 77.77 86.2167 77.8067 86.21 77.86L86.09 78.5C86.07 78.56 86.0433 78.6033 86.01 78.63C85.9833 78.6567 85.93 78.6567 85.85 78.63C85.75 78.61 85.6467 78.5867 85.54 78.56C85.4333 78.5267 85.3233 78.5 85.21 78.48C85.1033 78.46 85 78.4467 84.9 78.44C84.8 78.4333 84.7033 78.4333 84.61 78.44C84.31 78.48 84.0833 78.5833 83.93 78.75C83.7833 78.9167 83.71 79.1233 83.71 79.37C83.71 79.53 83.7767 79.6933 83.91 79.86C84.0433 80.0267 84.2733 80.2167 84.6 80.43C84.9733 80.6767 85.2833 80.89 85.53 81.07C85.7767 81.25 85.9767 81.4267 86.13 81.6C86.2833 81.7667 86.3867 81.9367 86.44 82.11C86.5 82.2767 86.53 82.46 86.53 82.66C86.53 83.2 86.3367 83.66 85.95 84.04ZM91.21 84.48C91.1433 84.5067 91.06 84.53 90.96 84.55C90.86 84.57 90.7467 84.5867 90.62 84.6C90.4933 84.6133 90.38 84.62 90.28 84.62C90.18 84.6267 90.07 84.6267 89.95 84.62C89.5633 84.5933 89.2333 84.5067 88.96 84.36C88.6933 84.2133 88.4567 84.0233 88.25 83.79C88.05 83.5567 87.8967 83.28 87.79 82.96C87.69 82.64 87.64 82.2933 87.64 81.92C87.64 81.5333 87.7033 81.1767 87.83 80.85C87.9567 80.5167 88.13 80.23 88.35 79.99C88.5767 79.75 88.83 79.5667 89.11 79.44C89.3967 79.3067 89.7367 79.24 90.13 79.24C90.29 79.24 90.4667 79.2567 90.66 79.29C90.86 79.3167 91.0533 79.3633 91.24 79.43C91.2667 79.4367 91.2867 79.45 91.3 79.47C91.3133 79.4833 91.3167 79.52 91.31 79.58L91.22 80.28C91.2133 80.3267 91.2 80.36 91.18 80.38C91.16 80.4 91.1233 80.4033 91.07 80.39C90.93 80.3367 90.7767 80.2967 90.61 80.27C90.4433 80.2433 90.2767 80.23 90.11 80.23C89.6233 80.23 89.27 80.39 89.05 80.71C88.8367 81.03 88.73 81.4333 88.73 81.92C88.73 82.3867 88.8367 82.7733 89.05 83.08C89.27 83.3867 89.59 83.57 90.01 83.63C90.39 83.6767 90.7567 83.6467 91.11 83.54C91.17 83.5133 91.2067 83.51 91.22 83.53C91.24 83.55 91.2533 83.58 91.26 83.62L91.31 84.32C91.3167 84.3667 91.3133 84.4 91.3 84.42C91.2933 84.4467 91.2633 84.4667 91.21 84.48ZM92.67 84.5C92.6367 84.5 92.6067 84.4867 92.58 84.46C92.56 84.44 92.55 84.41 92.55 84.37V83.59C92.55 83.5567 92.56 83.53 92.58 83.51C92.6067 83.4833 92.6367 83.47 92.67 83.47H94.03V80.39H92.85C92.8167 80.39 92.7867 80.38 92.76 80.36C92.74 80.3333 92.73 80.3 92.73 80.26V79.48C92.73 79.4467 92.74 79.42 92.76 79.4C92.7867 79.3733 92.8167 79.36 92.85 79.36H94.99C95.0233 79.36 95.05 79.3733 95.07 79.4C95.0967 79.42 95.11 79.4467 95.11 79.48V83.47H96.34C96.3733 83.47 96.4 83.4833 96.42 83.51C96.4467 83.53 96.46 83.5567 96.46 83.59V84.37C96.46 84.4567 96.42 84.5 96.34 84.5H92.67ZM94.43 78.57C94.2167 78.57 94.0367 78.4967 93.89 78.35C93.7433 78.2033 93.67 78.0267 93.67 77.82C93.67 77.6 93.7433 77.4167 93.89 77.27C94.0367 77.1167 94.2167 77.04 94.43 77.04C94.65 77.04 94.8333 77.1167 94.98 77.27C95.1333 77.4167 95.21 77.6 95.21 77.82C95.21 78.0267 95.1333 78.2033 94.98 78.35C94.8333 78.4967 94.65 78.57 94.43 78.57ZM101.49 82.23C101.49 82.2833 101.477 82.3233 101.45 82.35C101.43 82.37 101.4 82.38 101.36 82.38H98.62C98.6267 82.7333 98.7167 83.0367 98.89 83.29C99.07 83.5367 99.3567 83.66 99.75 83.66C99.99 83.66 100.2 83.6333 100.38 83.58C100.567 83.52 100.757 83.42 100.95 83.28C101.003 83.2533 101.033 83.2567 101.04 83.29C101.053 83.3233 101.06 83.3633 101.06 83.41V84.12C101.06 84.18 101.05 84.2233 101.03 84.25C101.01 84.2833 100.977 84.3167 100.93 84.35C100.757 84.4433 100.58 84.5167 100.4 84.57C100.227 84.6233 100.01 84.65 99.75 84.65C98.99 84.65 98.4233 84.4067 98.05 83.92C97.6767 83.4333 97.49 82.79 97.49 81.99C97.49 81.65 97.53 81.32 97.61 81C97.69 80.6733 97.8133 80.38 97.98 80.12C98.1533 79.86 98.37 79.6467 98.63 79.48C98.89 79.3133 99.19 79.23 99.53 79.23C99.89 79.23 100.193 79.3067 100.44 79.46C100.693 79.6133 100.897 79.8167 101.05 80.07C101.21 80.3167 101.323 80.6 101.39 80.92C101.463 81.24 101.5 81.5867 101.5 81.96C101.5 82.0067 101.497 82.06 101.49 82.12C101.49 82.1733 101.49 82.21 101.49 82.23ZM99.51 80.19C99.35 80.19 99.2067 80.2367 99.08 80.33C98.96 80.4167 98.8633 80.5367 98.79 80.69C98.7233 80.8367 98.6767 80.9733 98.65 81.1C98.63 81.22 98.62 81.3167 98.62 81.39H100.41C100.41 81.3167 100.397 81.22 100.37 81.1C100.35 80.9733 100.303 80.8367 100.23 80.69C100.163 80.5367 100.067 80.4167 99.94 80.33C99.8133 80.2367 99.67 80.19 99.51 80.19ZM105.51 84.5C105.477 84.5 105.447 84.4833 105.42 84.45C105.4 84.4233 105.39 84.3933 105.39 84.36V81.57C105.39 81.09 105.327 80.7433 105.2 80.53C105.08 80.3167 104.897 80.21 104.65 80.21C104.363 80.21 104.123 80.3333 103.93 80.58C103.743 80.82 103.65 81.17 103.65 81.63V84.37C103.65 84.4567 103.61 84.5 103.53 84.5H102.71C102.677 84.5 102.647 84.4833 102.62 84.45C102.6 84.4233 102.59 84.3933 102.59 84.36V80.77C102.59 80.5167 102.587 80.2733 102.58 80.04C102.58 79.8067 102.573 79.6233 102.56 79.49C102.547 79.4033 102.593 79.36 102.7 79.36H103.48C103.553 79.36 103.583 79.3867 103.57 79.44L103.56 79.8C103.673 79.64 103.83 79.5033 104.03 79.39C104.237 79.2767 104.453 79.22 104.68 79.22C105.16 79.22 105.573 79.4 105.92 79.76C106.273 80.1133 106.45 80.6667 106.45 81.42V84.37C106.45 84.4567 106.41 84.5 106.33 84.5H105.51ZM111.21 84.48C111.143 84.5067 111.06 84.53 110.96 84.55C110.86 84.57 110.747 84.5867 110.62 84.6C110.493 84.6133 110.38 84.62 110.28 84.62C110.18 84.6267 110.07 84.6267 109.95 84.62C109.563 84.5933 109.233 84.5067 108.96 84.36C108.693 84.2133 108.457 84.0233 108.25 83.79C108.05 83.5567 107.897 83.28 107.79 82.96C107.69 82.64 107.64 82.2933 107.64 81.92C107.64 81.5333 107.703 81.1767 107.83 80.85C107.957 80.5167 108.13 80.23 108.35 79.99C108.577 79.75 108.83 79.5667 109.11 79.44C109.397 79.3067 109.737 79.24 110.13 79.24C110.29 79.24 110.467 79.2567 110.66 79.29C110.86 79.3167 111.053 79.3633 111.24 79.43C111.267 79.4367 111.287 79.45 111.3 79.47C111.313 79.4833 111.317 79.52 111.31 79.58L111.22 80.28C111.213 80.3267 111.2 80.36 111.18 80.38C111.16 80.4 111.123 80.4033 111.07 80.39C110.93 80.3367 110.777 80.2967 110.61 80.27C110.443 80.2433 110.277 80.23 110.11 80.23C109.623 80.23 109.27 80.39 109.05 80.71C108.837 81.03 108.73 81.4333 108.73 81.92C108.73 82.3867 108.837 82.7733 109.05 83.08C109.27 83.3867 109.59 83.57 110.01 83.63C110.39 83.6767 110.757 83.6467 111.11 83.54C111.17 83.5133 111.207 83.51 111.22 83.53C111.24 83.55 111.253 83.58 111.26 83.62L111.31 84.32C111.317 84.3667 111.313 84.4 111.3 84.42C111.293 84.4467 111.263 84.4667 111.21 84.48ZM116.49 82.23C116.49 82.2833 116.477 82.3233 116.45 82.35C116.43 82.37 116.4 82.38 116.36 82.38H113.62C113.627 82.7333 113.717 83.0367 113.89 83.29C114.07 83.5367 114.357 83.66 114.75 83.66C114.99 83.66 115.2 83.6333 115.38 83.58C115.567 83.52 115.757 83.42 115.95 83.28C116.003 83.2533 116.033 83.2567 116.04 83.29C116.053 83.3233 116.06 83.3633 116.06 83.41V84.12C116.06 84.18 116.05 84.2233 116.03 84.25C116.01 84.2833 115.977 84.3167 115.93 84.35C115.757 84.4433 115.58 84.5167 115.4 84.57C115.227 84.6233 115.01 84.65 114.75 84.65C113.99 84.65 113.423 84.4067 113.05 83.92C112.677 83.4333 112.49 82.79 112.49 81.99C112.49 81.65 112.53 81.32 112.61 81C112.69 80.6733 112.813 80.38 112.98 80.12C113.153 79.86 113.37 79.6467 113.63 79.48C113.89 79.3133 114.19 79.23 114.53 79.23C114.89 79.23 115.193 79.3067 115.44 79.46C115.693 79.6133 115.897 79.8167 116.05 80.07C116.21 80.3167 116.323 80.6 116.39 80.92C116.463 81.24 116.5 81.5867 116.5 81.96C116.5 82.0067 116.497 82.06 116.49 82.12C116.49 82.1733 116.49 82.21 116.49 82.23ZM114.51 80.19C114.35 80.19 114.207 80.2367 114.08 80.33C113.96 80.4167 113.863 80.5367 113.79 80.69C113.723 80.8367 113.677 80.9733 113.65 81.1C113.63 81.22 113.62 81.3167 113.62 81.39H115.41C115.41 81.3167 115.397 81.22 115.37 81.1C115.35 80.9733 115.303 80.8367 115.23 80.69C115.163 80.5367 115.067 80.4167 114.94 80.33C114.813 80.2367 114.67 80.19 114.51 80.19Z" fill="black"/>
</g>
<path d="M104 38C104 24.1925 92.8075 13 79 13C65.1925 13 54 24.1925 54 38C54 51.8075 65.1925 63 79 63" stroke="#0076D6" stroke-width="3.75" stroke-linecap="round" stroke-linejoin="round"/>
<path d="M55.575 29.25H102.425M81.5 13.125C81.5 13.125 89 23 89 38L81.5 13.125ZM76.5 62.875C76.5 62.875 69 53 69 38C69 23 76.5 13.125 76.5 13.125V62.875ZM55.575 46.75H79H55.575Z" stroke="#0076D6" stroke-width="3.75" stroke-linecap="round" stroke-linejoin="round"/>
<path d="M103.698 52.7925C104.933 53.5525 104.855 55.4 103.585 55.545L97.1675 56.2725L94.29 62.0525C93.72 63.2 91.9575 62.6375 91.665 61.2175L88.5275 45.9275C88.28 44.7275 89.36 43.9725 90.4025 44.615L103.698 52.7925V52.7925Z" stroke="#0076D6" stroke-width="3.75"/>
<defs>
<filter id="filter0_d_32_29" x="0" y="0" width="158" height="108" filterUnits="userSpaceOnUse" color-interpolation-filters="sRGB">
<feFlood flood-opacity="0" result="BackgroundImageFix"/>
<feColorMatrix in="SourceAlpha" type="matrix" values="0 0 0 0 0 0 0 0 0 0 0 0 0 0 0 0 0 0 127 0" result="hardAlpha"/>
<feOffset dy="4"/>
<feGaussianBlur stdDeviation="2"/>
<feComposite in2="hardAlpha" operator="out"/>
<feColorMatrix type="matrix" values="0 0 0 0 0 0 0 0 0 0 0 0 0 0 0 0 0 0 0.25 0"/>
<feBlend mode="normal" in2="BackgroundImageFix" result="effect1_dropShadow_32_29"/>
<feBlend mode="normal" in="SourceGraphic" in2="effect1_dropShadow_32_29" result="shape"/>
</filter>
</defs>
</svg>