<svg width="158" height="108" viewBox="0 0 158 108" fill="none" xmlns="http://www.w3.org/2000/svg">
<g filter="url(#filter0_d_33_14)">
<rect x="4" width="150" height="100" rx="50" fill="#ECECEC"/>
</g>
<path d="M38.768 82.608C38.5227 82.6933 38.2613 82.7733 37.984 82.848C37.7173 82.9227 37.4133 82.96 37.072 82.96C36.5173 82.96 35.968 82.8107 35.424 82.512C34.88 82.224 34.416 81.808 34.032 81.264C33.648 80.7093 33.3547 80.08 33.152 79.376C32.96 78.672 32.864 77.952 32.864 77.216C32.864 76.48 32.96 75.76 33.152 75.056C33.3547 74.352 33.6427 73.7387 34.016 73.216C34.4 72.6933 34.864 72.2827 35.408 71.984C35.9627 71.6853 36.5173 71.536 37.072 71.536C37.328 71.536 37.6 71.5627 37.888 71.616C38.1867 71.6587 38.4853 71.7387 38.784 71.856C38.8693 71.888 38.9173 71.9253 38.928 71.968C38.9493 72.0107 38.9547 72.0853 38.944 72.192L38.928 73.408C38.928 73.5573 38.9067 73.6373 38.864 73.648C38.8213 73.648 38.7467 73.6267 38.64 73.584C38.1493 73.3387 37.6267 73.216 37.072 73.216C36.6987 73.216 36.352 73.3227 36.032 73.536C35.712 73.7387 35.4507 74.0427 35.248 74.448C35.0453 74.8427 34.8907 75.2907 34.784 75.792C34.6773 76.2827 34.624 76.7573 34.624 77.216C34.624 77.6747 34.6827 78.16 34.8 78.672C34.9173 79.1733 35.0773 79.6213 35.28 80.016C35.4827 80.4107 35.7547 80.72 36.096 80.944C36.4373 81.168 36.7787 81.28 37.12 81.28C37.3653 81.28 37.6107 81.2533 37.856 81.2C38.112 81.1467 38.3733 81.0667 38.64 80.96C38.7467 80.9067 38.816 80.8907 38.848 80.912C38.88 80.9333 38.896 80.976 38.896 81.04L38.944 82.272C38.9547 82.368 38.9493 82.4373 38.928 82.48C38.9067 82.5333 38.8533 82.576 38.768 82.608ZM46.512 81.68C46.2027 82.128 45.8347 82.464 45.408 82.688C44.992 82.9227 44.5227 83.04 44 83.04C43.4667 83.04 42.992 82.928 42.576 82.704C42.1707 82.48 41.824 82.1707 41.536 81.776C41.2587 81.3707 41.0507 80.9067 40.912 80.384C40.7733 79.8613 40.704 79.3013 40.704 78.704C40.704 78.1067 40.7733 77.5467 40.912 77.024C41.0507 76.5013 41.2587 76.0427 41.536 75.648C41.824 75.2533 42.1707 74.944 42.576 74.72C42.9813 74.496 43.456 74.384 44 74.384C44.5333 74.384 45.0027 74.496 45.408 74.72C45.824 74.944 46.1707 75.2533 46.448 75.648C46.736 76.0427 46.9493 76.5013 47.088 77.024C47.2267 77.5467 47.296 78.1067 47.296 78.704C47.296 79.2907 47.2267 79.84 47.088 80.352C46.9493 80.864 46.7573 81.3067 46.512 81.68ZM44 75.952C43.7227 75.952 43.488 76.032 43.296 76.192C43.104 76.352 42.944 76.5653 42.816 76.832C42.6987 77.088 42.6027 77.3813 42.528 77.712C42.464 78.0427 42.432 78.3733 42.432 78.704C42.432 79.0453 42.464 79.3813 42.528 79.712C42.6027 80.032 42.6987 80.3253 42.816 80.592C42.944 80.8587 43.104 81.072 43.296 81.232C43.488 81.392 43.7227 81.472 44 81.472C44.2667 81.472 44.496 81.392 44.688 81.232C44.8907 81.072 45.0507 80.8587 45.168 80.592C45.296 80.3253 45.392 80.032 45.456 79.712C45.5307 79.3813 45.568 79.0453 45.568 78.704C45.568 78.3733 45.5307 78.048 45.456 77.728C45.392 77.3973 45.296 77.104 45.168 76.848C45.0507 76.5813 44.8907 76.368 44.688 76.208C44.496 76.0373 44.2667 75.952 44 75.952ZM54.512 81.68C54.2027 82.128 53.8347 82.464 53.408 82.688C52.992 82.9227 52.5227 83.04 52 83.04C51.4667 83.04 50.992 82.928 50.576 82.704C50.1707 82.48 49.824 82.1707 49.536 81.776C49.2587 81.3707 49.0507 80.9067 48.912 80.384C48.7733 79.8613 48.704 79.3013 48.704 78.704C48.704 78.1067 48.7733 77.5467 48.912 77.024C49.0507 76.5013 49.2587 76.0427 49.536 75.648C49.824 75.2533 50.1707 74.944 50.576 74.72C50.9813 74.496 51.456 74.384 52 74.384C52.5333 74.384 53.0027 74.496 53.408 74.72C53.824 74.944 54.1707 75.2533 54.448 75.648C54.736 76.0427 54.9493 76.5013 55.088 77.024C55.2267 77.5467 55.296 78.1067 55.296 78.704C55.296 79.2907 55.2267 79.84 55.088 80.352C54.9493 80.864 54.7573 81.3067 54.512 81.68ZM52 75.952C51.7227 75.952 51.488 76.032 51.296 76.192C51.104 76.352 50.944 76.5653 50.816 76.832C50.6987 77.088 50.6027 77.3813 50.528 77.712C50.464 78.0427 50.432 78.3733 50.432 78.704C50.432 79.0453 50.464 79.3813 50.528 79.712C50.6027 80.032 50.6987 80.3253 50.816 80.592C50.944 80.8587 51.104 81.072 51.296 81.232C51.488 81.392 51.7227 81.472 52 81.472C52.2667 81.472 52.496 81.392 52.688 81.232C52.8907 81.072 53.0507 80.8587 53.168 80.592C53.296 80.3253 53.392 80.032 53.456 79.712C53.5307 79.3813 53.568 79.0453 53.568 78.704C53.568 78.3733 53.5307 78.048 53.456 77.728C53.392 77.3973 53.296 77.104 53.168 76.848C53.0507 76.5813 52.8907 76.368 52.688 76.208C52.496 76.0373 52.2667 75.952 52 75.952ZM60.416 74.384C60.9067 74.384 61.3333 74.4907 61.696 74.704C62.0693 74.9067 62.384 75.2 62.64 75.584C62.9067 75.9573 63.1093 76.4213 63.248 76.976C63.3867 77.52 63.456 78.1013 63.456 78.72C63.456 79.1893 63.3813 79.712 63.232 80.288C63.0933 80.8533 62.8907 81.3387 62.624 81.744C62.368 82.1493 62.0533 82.4587 61.68 82.672C61.3173 82.896 60.896 83.008 60.416 83.008C60.064 83.008 59.728 82.9227 59.408 82.752C59.0987 82.592 58.8267 82.3467 58.592 82.016V84.992C58.592 85.0773 58.5813 85.1307 58.56 85.152C58.5387 85.1733 58.496 85.184 58.432 85.184H57.056C56.9387 85.184 56.88 85.12 56.88 84.992V74.816C56.88 74.656 56.9547 74.576 57.104 74.576H58.384C58.5227 74.576 58.592 74.656 58.592 74.816V75.44C58.7733 75.12 59.0347 74.864 59.376 74.672C59.7173 74.48 60.064 74.384 60.416 74.384ZM60.048 81.376C60.56 81.376 60.9547 81.1093 61.232 80.576C61.5093 80.0427 61.648 79.424 61.648 78.72C61.648 77.9627 61.504 77.3227 61.216 76.8C60.928 76.2667 60.5387 76 60.048 76C59.8453 76 59.648 76.0693 59.456 76.208C59.264 76.3467 59.0933 76.544 58.944 76.8C58.8053 77.056 58.6987 77.3653 58.624 77.728C58.5493 78.08 58.512 78.4107 58.512 78.72C58.512 79.4773 58.6453 80.112 58.912 80.624C59.1893 81.1253 59.568 81.376 60.048 81.376ZM71.184 79.168C71.184 79.2533 71.1627 79.3173 71.12 79.36C71.088 79.392 71.04 79.408 70.976 79.408H66.592C66.6027 79.9733 66.7467 80.4587 67.024 80.864C67.312 81.2587 67.7707 81.456 68.4 81.456C68.784 81.456 69.12 81.4133 69.408 81.328C69.7067 81.232 70.0107 81.072 70.32 80.848C70.4053 80.8053 70.4533 80.8107 70.464 80.864C70.4853 80.9173 70.496 80.9813 70.496 81.056V82.192C70.496 82.288 70.48 82.3573 70.448 82.4C70.416 82.4533 70.3627 82.5067 70.288 82.56C70.0107 82.7093 69.728 82.8267 69.44 82.912C69.1627 82.9973 68.816 83.04 68.4 83.04C67.184 83.04 66.2773 82.6507 65.68 81.872C65.0827 81.0933 64.784 80.064 64.784 78.784C64.784 78.24 64.848 77.712 64.976 77.2C65.104 76.6773 65.3013 76.208 65.568 75.792C65.8453 75.376 66.192 75.0347 66.608 74.768C67.024 74.5013 67.504 74.368 68.048 74.368C68.624 74.368 69.1093 74.4907 69.504 74.736C69.9093 74.9813 70.2347 75.3067 70.48 75.712C70.736 76.1067 70.9173 76.56 71.024 77.072C71.1413 77.584 71.2 78.1387 71.2 78.736C71.2 78.8107 71.1947 78.896 71.184 78.992C71.184 79.0773 71.184 79.136 71.184 79.168ZM68.016 75.904C67.76 75.904 67.5307 75.9787 67.328 76.128C67.136 76.2667 66.9813 76.4587 66.864 76.704C66.7573 76.9387 66.6827 77.1573 66.64 77.36C66.608 77.552 66.592 77.7067 66.592 77.824H69.456C69.456 77.7067 69.4347 77.552 69.392 77.36C69.36 77.1573 69.2853 76.9387 69.168 76.704C69.0613 76.4587 68.9067 76.2667 68.704 76.128C68.5013 75.9787 68.272 75.904 68.016 75.904ZM72.912 82.8C72.8587 82.8 72.8107 82.7787 72.768 82.736C72.736 82.704 72.72 82.656 72.72 82.592V81.344C72.72 81.2907 72.736 81.248 72.768 81.216C72.8107 81.1733 72.8587 81.152 72.912 81.152H73.92V76.736V76.176H72.608C72.5547 76.176 72.5067 76.16 72.464 76.128C72.432 76.0853 72.416 76.032 72.416 75.968V74.768C72.416 74.7147 72.432 74.672 72.464 74.64C72.5067 74.5973 72.5547 74.576 72.608 74.576H75.232C75.2747 74.576 75.3067 74.592 75.328 74.624C75.36 74.6453 75.376 74.6773 75.376 74.72V76.08C75.4827 75.856 75.5947 75.664 75.712 75.504C75.84 75.3333 75.9733 75.184 76.112 75.056C76.2613 74.9173 76.4267 74.7947 76.608 74.688C76.8 74.5707 77.0773 74.4693 77.44 74.384C77.8987 74.3093 78.3413 74.32 78.768 74.416C79.2053 74.512 79.568 74.6773 79.856 74.912C79.9093 74.9653 79.9307 75.0133 79.92 75.056C79.9093 75.0987 79.8987 75.1413 79.888 75.184L79.36 76.272C79.3387 76.336 79.3013 76.3787 79.248 76.4C79.2053 76.4213 79.1467 76.4107 79.072 76.368C78.8267 76.2293 78.5547 76.1333 78.256 76.08C77.9573 76.0267 77.664 76.0267 77.376 76.08C76.8747 76.176 76.48 76.416 76.192 76.8C75.904 77.184 75.728 77.5733 75.664 77.968C75.6 78.3627 75.568 78.8267 75.568 79.36V81.152H77.232C77.2853 81.152 77.328 81.1733 77.36 81.216C77.4027 81.248 77.424 81.2907 77.424 81.344V82.592C77.424 82.7307 77.36 82.8 77.232 82.8H72.912ZM85.712 82.8C85.6373 82.8 85.5893 82.7947 85.568 82.784C85.5573 82.7733 85.552 82.736 85.552 82.672V81.936C85.296 82.3093 84.976 82.5867 84.592 82.768C84.208 82.96 83.8187 83.056 83.424 83.056C83.1147 83.056 82.784 82.9973 82.432 82.88C82.0907 82.7733 81.7973 82.608 81.552 82.384C81.3067 82.1707 81.1093 81.904 80.96 81.584C80.8213 81.264 80.752 80.8907 80.752 80.464C80.752 80.0053 80.8427 79.5893 81.024 79.216C81.216 78.832 81.504 78.512 81.888 78.256C82.272 78 82.736 77.8133 83.28 77.696C83.8347 77.568 84.5387 77.504 85.392 77.504C85.392 77.312 85.3707 77.136 85.328 76.976C85.296 76.8053 85.232 76.6453 85.136 76.496C85.04 76.3467 84.9013 76.224 84.72 76.128C84.5493 76.0213 84.336 75.968 84.08 75.968C83.7387 75.968 83.3813 76.032 83.008 76.16C82.6453 76.288 82.304 76.4587 81.984 76.672C81.824 76.7787 81.712 76.8267 81.648 76.816C81.5947 76.8053 81.568 76.7467 81.568 76.64V75.392C81.568 75.3707 81.5627 75.3333 81.552 75.28C81.552 75.216 81.5733 75.168 81.616 75.136C81.6693 75.0827 81.7387 75.0347 81.824 74.992C82.144 74.8107 82.496 74.6613 82.88 74.544C83.264 74.4267 83.6533 74.368 84.048 74.368C85.072 74.368 85.8347 74.6293 86.336 75.152C86.848 75.664 87.104 76.4053 87.104 77.376V80.896C87.104 81.184 87.104 81.4773 87.104 81.776C87.1147 82.0747 87.136 82.3413 87.168 82.576C87.1787 82.7253 87.12 82.8 86.992 82.8H85.712ZM82.464 80.352C82.464 80.7253 82.576 81.008 82.8 81.2C83.024 81.3813 83.264 81.472 83.52 81.472C84.0853 81.472 84.5493 81.2533 84.912 80.816C85.2747 80.368 85.456 79.8293 85.456 79.2V79.024C84.3147 79.024 83.5307 79.1413 83.104 79.376C82.6773 79.6 82.464 79.9253 82.464 80.352ZM95.136 82.624C94.7413 82.7627 94.3413 82.864 93.936 82.928C93.5413 82.992 93.2053 83.0187 92.928 83.008C92.3733 83.008 91.9307 82.912 91.6 82.72C91.2693 82.5387 91.04 82.3253 90.912 82.08C90.7627 81.8027 90.672 81.4773 90.64 81.104C90.608 80.7307 90.592 80.224 90.592 79.584V76.56H88.832C88.7787 76.56 88.7307 76.544 88.688 76.512C88.656 76.4693 88.64 76.4213 88.64 76.368V75.104C88.64 75.0507 88.656 75.008 88.688 74.976C88.7307 74.9333 88.7787 74.912 88.832 74.912H90.592V72.592C90.592 72.5387 90.6133 72.496 90.656 72.464C90.6987 72.4213 90.7467 72.4 90.8 72.4H92.096C92.16 72.4 92.208 72.4213 92.24 72.464C92.2827 72.496 92.304 72.5387 92.304 72.592V74.912H94.992C95.0453 74.912 95.088 74.9333 95.12 74.976C95.1627 75.008 95.184 75.0507 95.184 75.104V76.368C95.184 76.4213 95.1627 76.4693 95.12 76.512C95.088 76.544 95.0453 76.56 94.992 76.56H92.304V79.68C92.304 80.3733 92.32 80.816 92.352 81.008C92.3733 81.2107 92.4693 81.3333 92.64 81.376C92.8213 81.4187 93.0613 81.44 93.36 81.44C93.6053 81.44 93.8613 81.4133 94.128 81.36C94.3947 81.3067 94.656 81.2373 94.912 81.152C94.9653 81.1307 95.0027 81.1307 95.024 81.152C95.0453 81.1627 95.0667 81.2107 95.088 81.296L95.216 82.432C95.2267 82.5067 95.2 82.5707 95.136 82.624ZM97.072 82.8C97.0187 82.8 96.9707 82.7787 96.928 82.736C96.896 82.704 96.88 82.656 96.88 82.592V81.344C96.88 81.2907 96.896 81.248 96.928 81.216C96.9707 81.1733 97.0187 81.152 97.072 81.152H99.248V76.224H97.36C97.3067 76.224 97.2587 76.208 97.216 76.176C97.184 76.1333 97.168 76.08 97.168 76.016V74.768C97.168 74.7147 97.184 74.672 97.216 74.64C97.2587 74.5973 97.3067 74.576 97.36 74.576H100.784C100.837 74.576 100.88 74.5973 100.912 74.64C100.955 74.672 100.976 74.7147 100.976 74.768V81.152H102.944C102.997 81.152 103.04 81.1733 103.072 81.216C103.115 81.248 103.136 81.2907 103.136 81.344V82.592C103.136 82.7307 103.072 82.8 102.944 82.8H97.072ZM99.888 73.312C99.5467 73.312 99.2587 73.1947 99.024 72.96C98.7893 72.7253 98.672 72.4427 98.672 72.112C98.672 71.76 98.7893 71.4667 99.024 71.232C99.2587 70.9867 99.5467 70.864 99.888 70.864C100.24 70.864 100.533 70.9867 100.768 71.232C101.013 71.4667 101.136 71.76 101.136 72.112C101.136 72.4427 101.013 72.7253 100.768 72.96C100.533 73.1947 100.24 73.312 99.888 73.312ZM110.512 81.68C110.203 82.128 109.835 82.464 109.408 82.688C108.992 82.9227 108.523 83.04 108 83.04C107.467 83.04 106.992 82.928 106.576 82.704C106.171 82.48 105.824 82.1707 105.536 81.776C105.259 81.3707 105.051 80.9067 104.912 80.384C104.773 79.8613 104.704 79.3013 104.704 78.704C104.704 78.1067 104.773 77.5467 104.912 77.024C105.051 76.5013 105.259 76.0427 105.536 75.648C105.824 75.2533 106.171 74.944 106.576 74.72C106.981 74.496 107.456 74.384 108 74.384C108.533 74.384 109.003 74.496 109.408 74.72C109.824 74.944 110.171 75.2533 110.448 75.648C110.736 76.0427 110.949 76.5013 111.088 77.024C111.227 77.5467 111.296 78.1067 111.296 78.704C111.296 79.2907 111.227 79.84 111.088 80.352C110.949 80.864 110.757 81.3067 110.512 81.68ZM108 75.952C107.723 75.952 107.488 76.032 107.296 76.192C107.104 76.352 106.944 76.5653 106.816 76.832C106.699 77.088 106.603 77.3813 106.528 77.712C106.464 78.0427 106.432 78.3733 106.432 78.704C106.432 79.0453 106.464 79.3813 106.528 79.712C106.603 80.032 106.699 80.3253 106.816 80.592C106.944 80.8587 107.104 81.072 107.296 81.232C107.488 81.392 107.723 81.472 108 81.472C108.267 81.472 108.496 81.392 108.688 81.232C108.891 81.072 109.051 80.8587 109.168 80.592C109.296 80.3253 109.392 80.032 109.456 79.712C109.531 79.3813 109.568 79.0453 109.568 78.704C109.568 78.3733 109.531 78.048 109.456 77.728C109.392 77.3973 109.296 77.104 109.168 76.848C109.051 76.5813 108.891 76.368 108.688 76.208C108.496 76.0373 108.267 75.952 108 75.952ZM117.616 82.8C117.563 82.8 117.515 82.7733 117.472 82.72C117.44 82.6773 117.424 82.6293 117.424 82.576V78.112C117.424 77.344 117.323 76.7893 117.12 76.448C116.928 76.1067 116.635 75.936 116.24 75.936C115.781 75.936 115.397 76.1333 115.088 76.528C114.789 76.912 114.64 77.472 114.64 78.208V82.592C114.64 82.7307 114.576 82.8 114.448 82.8H113.136C113.083 82.8 113.035 82.7733 112.992 82.72C112.96 82.6773 112.944 82.6293 112.944 82.576V76.832C112.944 76.4267 112.939 76.0373 112.928 75.664C112.928 75.2907 112.917 74.9973 112.896 74.784C112.875 74.6453 112.949 74.576 113.12 74.576H114.368C114.485 74.576 114.533 74.6187 114.512 74.704L114.496 75.28C114.677 75.024 114.928 74.8053 115.248 74.624C115.579 74.4427 115.925 74.352 116.288 74.352C117.056 74.352 117.717 74.64 118.272 75.216C118.837 75.7813 119.12 76.6667 119.12 77.872V82.592C119.12 82.7307 119.056 82.8 118.928 82.8H117.616Z" fill="black"/>
<path d="M115.053 29.2617L98.9726 13.1816C98.1999 12.4242 97.161 12 96.079 12C94.997 12 93.9581 12.4242 93.1854 13.1816L90.9394 15.4276C90.2174 16.167 89.7985 17.1501 89.7653 18.183C89.7322 19.216 90.0872 20.2239 90.7603 21.0081C89.7682 21.8412 88.6151 22.4608 87.3728 22.8283C86.1305 23.1957 84.8258 23.3032 83.5402 23.1438C81.1341 22.8554 78.6968 23.292 76.5404 24.3977H76.444L70.9324 23.695C70.3159 23.6194 69.7429 23.3378 69.3065 22.8958L67.4739 21.0632C68.1586 20.2807 68.5232 19.2689 68.4951 18.2295C68.467 17.1902 68.0483 16.1996 67.3223 15.4552L65.0764 13.2092C64.3037 12.4518 63.2648 12.0276 62.1828 12.0276C61.1008 12.0276 60.0619 12.4518 59.2892 13.2092L43.1816 29.2617C42.4242 30.0344 42 31.0732 42 32.1552C42 33.2372 42.4242 34.2761 43.1816 35.0488L45.4276 37.2948C46.172 38.0207 47.1626 38.4395 48.202 38.4676C49.2413 38.4956 50.2531 38.131 51.0356 37.4464L54.563 40.96C55.0998 41.511 55.4885 42.1888 55.6929 42.9304C56.42 45.6273 57.8459 48.0846 59.8266 50.0541V50.0541C59.4556 50.7511 59.2713 51.5322 59.2917 52.3215C59.312 53.1108 59.5363 53.8815 59.9428 54.5584C60.3492 55.2353 60.9239 55.7955 61.611 56.1845C62.2982 56.5735 63.0742 56.778 63.8638 56.7782V56.7782C63.8602 57.3818 63.9764 57.9801 64.2056 58.5384C64.4349 59.0968 64.7728 59.604 65.1996 60.0308C65.6264 60.4576 66.1337 60.7955 66.692 61.0248C67.2503 61.2541 67.8486 61.3702 68.4522 61.3666V61.3666C68.4653 62.5897 68.9604 63.7583 69.8301 64.6184C70.5231 65.3131 71.4223 65.765 72.3933 65.9066C73.3644 66.0481 74.3551 65.8718 75.2177 65.4038L75.4657 65.6518C76.007 66.1973 76.6773 66.5971 77.4144 66.8142C78.1515 67.0313 78.9315 67.0586 79.682 66.8937C80.4325 66.7287 81.1291 66.3768 81.7073 65.8707C82.2854 65.3645 82.7263 64.7205 82.989 63.9984L83.5539 64.5633C83.9791 64.9912 84.4847 65.3307 85.0416 65.5624C85.5985 65.7941 86.1957 65.9134 86.7989 65.9134C87.4021 65.9134 87.9993 65.7941 88.5562 65.5624C89.1131 65.3307 89.6187 64.9912 90.0438 64.5633C90.4993 64.0949 90.8431 63.5297 91.0497 62.9098L91.7248 63.585C92.5855 64.4456 93.7527 64.9291 94.9698 64.9291C96.1869 64.9291 97.3541 64.4456 98.2147 63.585C99.0753 62.7244 99.5588 61.5571 99.5588 60.3401C99.5588 59.123 99.0753 57.9557 98.2147 57.0951L97.5396 56.42C98.1583 56.1995 98.719 55.8414 99.1792 55.3727C99.6125 54.9516 99.9576 54.4484 100.194 53.8924C100.431 53.3365 100.554 52.7389 100.557 52.1347C100.554 51.409 100.374 50.6949 100.034 50.0541L100.295 49.7785C102.086 48.0056 103.301 45.7345 103.781 43.2611C104.159 41.3044 105.119 39.5078 106.537 38.1077L107.24 37.405C108.022 38.0897 109.034 38.4543 110.074 38.4262C111.113 38.3981 112.104 37.9794 112.848 37.2534L115.094 35.0075C115.833 34.2313 116.243 33.1982 116.235 32.1262C116.227 31.0542 115.803 30.0271 115.053 29.2617V29.2617ZM47.3291 35.352L45.0831 33.1611C44.8265 32.9029 44.6825 32.5537 44.6825 32.1897C44.6825 31.8257 44.8265 31.4764 45.0831 31.2183L61.2045 15.0831C61.3332 14.9476 61.4882 14.8397 61.6599 14.766C61.8316 14.6923 62.0166 14.6543 62.2035 14.6543C62.3904 14.6543 62.5753 14.6923 62.747 14.766C62.9188 14.8397 63.0737 14.9476 63.2024 15.0831L65.3382 17.3291C65.4737 17.4578 65.5816 17.6128 65.6553 17.7845C65.729 17.9562 65.767 18.1412 65.767 18.3281C65.767 18.515 65.729 18.6999 65.6553 18.8716C65.5816 19.0434 65.4737 19.1983 65.3382 19.327L49.327 35.352C49.1983 35.4875 49.0434 35.5953 48.8716 35.6691C48.6999 35.7428 48.515 35.7808 48.3281 35.7808C48.1412 35.7808 47.9562 35.7428 47.7845 35.6691C47.6128 35.5953 47.4578 35.4875 47.3291 35.352V35.352ZM62.5824 53.5677C62.3974 53.3891 62.2502 53.175 62.1497 52.9383C62.0492 52.7015 61.9974 52.447 61.9974 52.1898C61.9974 51.9326 62.0492 51.6781 62.1497 51.4414C62.2502 51.2046 62.3974 50.9906 62.5824 50.8119C62.9407 50.4593 63.4232 50.2617 63.9258 50.2617C64.4285 50.2617 64.911 50.4593 65.2693 50.8119C65.4502 50.9883 65.5947 51.1987 65.6943 51.4309C65.794 51.6632 65.8469 51.9128 65.8501 52.1655C65.8533 52.4182 65.8067 52.669 65.713 52.9037C65.6192 53.1384 65.4802 53.3523 65.3037 53.5333C65.1273 53.7142 64.917 53.8586 64.6847 53.9583C64.4525 54.058 64.2029 54.1109 63.9502 54.1141C63.6975 54.1173 63.4466 54.0707 63.2119 53.9769C62.9773 53.8832 62.7633 53.7441 62.5824 53.5677ZM67.1708 58.1561C66.9007 57.8885 66.717 57.5461 66.6435 57.1731C66.57 56.8 66.61 56.4135 66.7583 56.0635C66.9066 55.7134 67.1565 55.4159 67.4757 55.2092C67.7948 55.0026 68.1686 54.8964 68.5487 54.9043C68.8039 54.8967 69.0579 54.9417 69.295 55.0365C69.532 55.1313 69.747 55.2739 69.9266 55.4554C70.1099 55.635 70.2555 55.8494 70.3549 56.086C70.4543 56.3226 70.5056 56.5767 70.5056 56.8333C70.5056 57.09 70.4543 57.344 70.3549 57.5806C70.2555 57.8172 70.1099 58.0316 69.9266 58.2112V58.2112C69.7412 58.4 69.5193 58.5489 69.2744 58.6488C69.0295 58.7488 68.7668 58.7977 68.5023 58.7925C68.2379 58.7874 67.9773 58.7283 67.7364 58.6188C67.4956 58.5094 67.2797 58.3519 67.1019 58.1561H67.1708ZM71.7592 62.7445C71.5724 62.5669 71.4237 62.3531 71.3221 62.1163C71.2204 61.8794 71.168 61.6243 71.168 61.3666C71.168 61.1088 71.2204 60.8538 71.3221 60.6169C71.4237 60.38 71.5724 60.1663 71.7592 59.9887V59.9887C72.1274 59.6299 72.6229 59.4317 73.1371 59.4375C73.4476 59.444 73.7519 59.5265 74.0233 59.6777C74.2946 59.829 74.5248 60.0444 74.6936 60.3052C74.8625 60.5659 74.9649 60.8641 74.9918 61.1736C75.0188 61.4831 74.9695 61.7944 74.8483 62.0805C74.7271 62.3665 74.5377 62.6185 74.2966 62.8144C74.0554 63.0103 73.77 63.1441 73.4652 63.2042C73.1604 63.2643 72.8456 63.2488 72.5481 63.159C72.2507 63.0693 71.9798 62.908 71.7592 62.6894V62.7445ZM97.3604 53.5264C96.9922 53.8866 96.4976 54.0883 95.9825 54.0883C95.4674 54.0883 94.9728 53.8866 94.6046 53.5264V53.5264L80.619 39.4856C80.5084 39.3112 80.3601 39.1638 80.1848 39.0545C80.0096 38.9451 79.8121 38.8765 79.6068 38.8538C79.4015 38.8311 79.1937 38.8548 78.9989 38.9232C78.804 38.9917 78.627 39.103 78.4809 39.249C78.3349 39.3951 78.2235 39.5721 78.1551 39.767C78.0867 39.9619 78.063 40.1696 78.0857 40.3749C78.1084 40.5802 78.177 40.7777 78.2864 40.953C78.3957 41.1282 78.5431 41.2765 78.7175 41.3871L96.3132 59.0379C96.4946 59.2183 96.6381 59.4331 96.7351 59.6697C96.8321 59.9064 96.8808 60.1601 96.8782 60.4158C96.8832 60.6719 96.8356 60.9263 96.7384 61.1633C96.6413 61.4003 96.4966 61.6149 96.3132 61.7937C95.955 62.1463 95.4724 62.3439 94.9698 62.3439C94.4671 62.3439 93.9846 62.1463 93.6263 61.7937L76.0306 44.1291C75.7662 43.9615 75.4526 43.8889 75.1414 43.9234C74.8302 43.9578 74.54 44.0972 74.3186 44.3186C74.0972 44.54 73.9578 44.8302 73.9234 45.1414C73.8889 45.4526 73.9615 45.7662 74.1291 46.0306L88.1148 60.0025C88.4802 60.3679 88.6855 60.8636 88.6855 61.3804C88.6855 61.8972 88.4802 62.3928 88.1148 62.7583C87.7493 63.1237 87.2537 63.329 86.7369 63.329C86.2201 63.329 85.7244 63.1237 85.359 62.7583L71.4422 48.7175C71.1778 48.5499 70.8642 48.4773 70.553 48.5118C70.2418 48.5462 69.9516 48.6856 69.7302 48.907C69.5088 49.1284 69.3694 49.4185 69.335 49.7297C69.3005 50.0409 69.3731 50.3546 69.5408 50.619L80.0127 61.091C80.1937 61.272 80.3372 61.4868 80.4352 61.7232C80.5331 61.9596 80.5835 62.213 80.5835 62.4689C80.5835 62.7248 80.5331 62.9782 80.4352 63.2146C80.3372 63.451 80.1937 63.6658 80.0127 63.8468C79.8318 64.0277 79.617 64.1713 79.3806 64.2692C79.1441 64.3671 78.8907 64.4175 78.6348 64.4175C78.3789 64.4175 78.1256 64.3671 77.8891 64.2692C77.6527 64.1713 77.4379 64.0277 77.257 63.8468L77.0089 63.5988C77.3851 62.9033 77.5735 62.1218 77.5554 61.3313C77.5373 60.5408 77.3134 59.7687 76.9058 59.0912C76.4982 58.4137 75.9209 57.8541 75.231 57.4679C74.5411 57.0816 73.7624 56.8819 72.9717 56.8884C72.9792 56.2857 72.8654 55.6876 72.637 55.1299C72.4085 54.5721 72.0701 54.0659 71.642 53.6417C71.2139 53.2174 70.7047 52.8836 70.1449 52.6602C69.585 52.4368 68.9859 52.3284 68.3833 52.3414C68.4029 51.5441 68.213 50.7556 67.8327 50.0546C67.4524 49.3536 66.895 48.7646 66.216 48.3463C65.5369 47.928 64.7601 47.6951 63.963 47.6708C63.1658 47.6465 62.3762 47.8316 61.673 48.2077V48.2077C60.0359 46.5533 58.8663 44.4947 58.2834 42.2414C57.9695 41.0391 57.3363 39.9441 56.4508 39.0723L52.9371 35.5724L65.5586 22.9509L67.3775 24.7697C68.2381 25.6249 69.357 26.1722 70.5604 26.3268L73.3989 26.685L66.6196 33.4642C66.112 33.9373 65.7048 34.5077 65.4224 35.1416C65.1399 35.7754 64.9881 36.4596 64.9758 37.1534C64.9636 37.8472 65.0912 38.5363 65.3511 39.1797C65.611 39.8231 65.9978 40.4076 66.4885 40.8982C66.9791 41.3889 67.5636 41.7757 68.207 42.0356C68.8504 42.2955 69.5395 42.4231 70.2333 42.4108C70.9271 42.3986 71.6113 42.2467 72.2451 41.9643C72.879 41.6819 73.4494 41.2747 73.9225 40.7671L78.4833 36.2063C78.8919 35.8065 79.3851 35.5035 79.9265 35.3199C80.4679 35.1363 81.0436 35.0766 81.6111 35.1453L97.2915 50.8257C97.4711 51.0067 97.6124 51.2219 97.7071 51.4587C97.8018 51.6954 97.8479 51.9487 97.8427 52.2036C97.8371 52.6992 97.6395 53.1734 97.2915 53.5264H97.3604ZM101.163 42.7788C100.777 44.7323 99.818 46.5264 98.4076 47.9321L98.3112 48.0286L87.6601 37.405C89.0113 37.7554 90.3982 37.9496 91.7937 37.9837C91.9723 37.9973 92.1517 37.9732 92.3204 37.9132C92.4891 37.8531 92.6433 37.7583 92.7732 37.635C92.903 37.5117 93.0055 37.3625 93.0742 37.1971C93.1428 37.0317 93.176 36.8537 93.1716 36.6747C93.1716 36.3093 93.0265 35.9588 92.7681 35.7004C92.5097 35.442 92.1592 35.2968 91.7937 35.2968C89.1811 35.2266 86.6239 34.5271 84.3393 33.2576C83.101 32.56 81.6695 32.2837 80.2605 32.4701C78.8515 32.6564 77.5411 33.2955 76.5267 34.291L71.9658 38.8518C71.7504 39.1343 71.4767 39.3672 71.1634 39.5347C70.85 39.7023 70.5044 39.8005 70.1498 39.8228C69.7952 39.8452 69.4399 39.7911 69.1081 39.6642C68.7762 39.5373 68.4755 39.3406 68.2262 39.0873C67.977 38.8341 67.7851 38.5303 67.6635 38.1965C67.5419 37.8626 67.4934 37.5066 67.5214 37.1524C67.5493 36.7982 67.6531 36.4541 67.8255 36.1435C67.998 35.8329 68.2352 35.5629 68.5211 35.352L75.4106 28.4625C76.43 27.4534 77.6657 26.6895 79.0241 26.2288C80.3824 25.7681 81.8278 25.6225 83.2508 25.8031C84.9273 26.0091 86.6284 25.8618 88.2445 25.3705C89.8606 24.8793 91.356 24.0551 92.6343 22.9509L105.297 35.5724L104.608 36.2476C102.834 38.0321 101.634 40.3067 101.163 42.7788V42.7788ZM113.192 33.1335L110.905 35.352C110.776 35.4875 110.621 35.5953 110.45 35.6691C110.278 35.7428 110.093 35.7808 109.906 35.7808C109.719 35.7808 109.534 35.7428 109.363 35.6691C109.191 35.5953 109.036 35.4875 108.907 35.352L92.8961 19.327C92.7606 19.1983 92.6527 19.0434 92.5789 18.8716C92.5052 18.6999 92.4672 18.515 92.4672 18.3281C92.4672 18.1412 92.5052 17.9562 92.5789 17.7845C92.6527 17.6128 92.7606 17.4578 92.8961 17.3291L95.142 15.0831C95.2707 14.9476 95.4257 14.8397 95.5974 14.766C95.7692 14.6923 95.9541 14.6543 96.141 14.6543C96.3279 14.6543 96.5128 14.6923 96.6846 14.766C96.8563 14.8397 97.0112 14.9476 97.14 15.0831L113.151 31.2183C113.408 31.4764 113.552 31.8257 113.552 32.1897C113.552 32.5537 113.408 32.9029 113.151 33.1611L113.192 33.1335Z" fill="#3D3D63"/>
<defs>
<filter id="filter0_d_33_14" x="0" y="0" width="158" height="108" filterUnits="userSpaceOnUse" color-interpolation-filters="sRGB">
<feFlood flood-opacity="0" result="BackgroundImageFix"/>
<feColorMatrix in="SourceAlpha" type="matrix" values="0 0 0 0 0 0 0 0 0 0 0 0 0 0 0 0 0 0 127 0" result="hardAlpha"/>
<feOffset dy="4"/>
<feGaussianBlur stdDeviation="2"/>
<feComposite in2="hardAlpha" operator="out"/>
<feColorMatrix type="matrix" values="0 0 0 0 0 0 0 0 0 0 0 0 0 0 0 0 0 0 0.25 0"/>
<feBlend mode="normal" in2="BackgroundImageFix" result="effect1_dropShadow_33_14"/>
<feBlend mode="normal" in="SourceGraphic" in2="effect1_dropShadow_33_14" result="shape"/>
</filter>
</defs>
</svg>
