<svg width="158" height="108" viewBox="0 0 158 108" fill="none" xmlns="http://www.w3.org/2000/svg">
<g filter="url(#filter0_d_33_20)">
<rect x="4" width="150" height="100" rx="50" fill="#ECECEC"/>
<path d="M72.04 87.54C71.8667 87.66 71.6667 87.76 71.44 87.84C71.2267 87.9333 70.98 88.0133 70.7 88.08C70.4333 88.1467 70.1733 88.1933 69.92 88.22C69.6667 88.26 69.4333 88.28 69.22 88.28C68.54 88.28 67.8867 88.1067 67.26 87.76C66.6467 87.4133 66.1 86.9067 65.62 86.24C65.14 85.5733 64.7667 84.8067 64.5 83.94C64.2467 83.06 64.12 82.1067 64.12 81.08C64.12 80.1467 64.24 79.2533 64.48 78.4C64.7333 77.5467 65.0933 76.7733 65.56 76.08C66.0267 75.3867 66.5667 74.8467 67.18 74.46C67.8067 74.0733 68.4867 73.8733 69.22 73.86C69.66 73.86 70.1133 73.9 70.58 73.98C71.0467 74.06 71.4733 74.1867 71.86 74.36C71.9533 74.4 72.0067 74.4467 72.02 74.5C72.0467 74.54 72.0533 74.5867 72.04 74.64L71.88 76.3C71.8667 76.3933 71.84 76.46 71.8 76.5C71.7733 76.54 71.7133 76.5333 71.62 76.48C71.22 76.3067 70.8267 76.18 70.44 76.1C70.0533 76.02 69.6467 75.98 69.22 75.98C68.86 75.98 68.4867 76.12 68.1 76.4C67.7267 76.68 67.4067 77.0733 67.14 77.58C66.8867 78.0733 66.6867 78.62 66.54 79.22C66.3933 79.8067 66.32 80.4267 66.32 81.08C66.32 81.7867 66.3933 82.4467 66.54 83.06C66.6867 83.6733 66.8933 84.2267 67.16 84.72C67.4267 85.2 67.7133 85.5667 68.02 85.82C68.34 86.06 68.74 86.18 69.22 86.18C69.4333 86.18 69.6467 86.1533 69.86 86.1C70.0867 86.0467 70.2067 85.9667 70.22 85.86V82.42H68.1C68.0467 82.42 68.0067 82.4 67.98 82.36C67.9533 82.3067 67.94 82.2467 67.94 82.18V80.6C67.94 80.52 67.9533 80.4533 67.98 80.4C68.02 80.3467 68.0667 80.32 68.12 80.32H72C72.12 80.32 72.2 80.3533 72.24 80.42C72.28 80.4867 72.3 80.62 72.3 80.82V86.82C72.3 87.02 72.2733 87.1733 72.22 87.28C72.1667 87.3867 72.1067 87.4733 72.04 87.54ZM74.84 88C74.7733 88 74.7133 87.9733 74.66 87.92C74.62 87.88 74.6 87.82 74.6 87.74V86.18C74.6 86.1133 74.62 86.06 74.66 86.02C74.7133 85.9667 74.7733 85.94 74.84 85.94H77.56V79.78H75.2C75.1333 79.78 75.0733 79.76 75.02 79.72C74.98 79.6667 74.96 79.6 74.96 79.52V77.96C74.96 77.8933 74.98 77.84 75.02 77.8C75.0733 77.7467 75.1333 77.72 75.2 77.72H79.48C79.5467 77.72 79.6 77.7467 79.64 77.8C79.6933 77.84 79.72 77.8933 79.72 77.96V85.94H82.18C82.2467 85.94 82.3 85.9667 82.34 86.02C82.3933 86.06 82.42 86.1133 82.42 86.18V87.74C82.42 87.9133 82.34 88 82.18 88H74.84ZM78.36 76.14C77.9333 76.14 77.5733 75.9933 77.28 75.7C76.9867 75.4067 76.84 75.0533 76.84 74.64C76.84 74.2 76.9867 73.8333 77.28 73.54C77.5733 73.2333 77.9333 73.08 78.36 73.08C78.8 73.08 79.1667 73.2333 79.46 73.54C79.7667 73.8333 79.92 74.2 79.92 74.64C79.92 75.0533 79.7667 75.4067 79.46 75.7C79.1667 75.9933 78.8 76.14 78.36 76.14ZM92.42 87.78C91.9267 87.9533 91.4267 88.08 90.92 88.16C90.4267 88.24 90.0067 88.2733 89.66 88.26C88.9667 88.26 88.4133 88.14 88 87.9C87.5867 87.6733 87.3 87.4067 87.14 87.1C86.9533 86.7533 86.84 86.3467 86.8 85.88C86.76 85.4133 86.74 84.78 86.74 83.98V80.2H84.54C84.4733 80.2 84.4133 80.18 84.36 80.14C84.32 80.0867 84.3 80.0267 84.3 79.96V78.38C84.3 78.3133 84.32 78.26 84.36 78.22C84.4133 78.1667 84.4733 78.14 84.54 78.14H86.74V75.24C86.74 75.1733 86.7667 75.12 86.82 75.08C86.8733 75.0267 86.9333 75 87 75H88.62C88.7 75 88.76 75.0267 88.8 75.08C88.8533 75.12 88.88 75.1733 88.88 75.24V78.14H92.24C92.3067 78.14 92.36 78.1667 92.4 78.22C92.4533 78.26 92.48 78.3133 92.48 78.38V79.96C92.48 80.0267 92.4533 80.0867 92.4 80.14C92.36 80.18 92.3067 80.2 92.24 80.2H88.88V84.1C88.88 84.9667 88.9 85.52 88.94 85.76C88.9667 86.0133 89.0867 86.1667 89.3 86.22C89.5267 86.2733 89.8267 86.3 90.2 86.3C90.5067 86.3 90.8267 86.2667 91.16 86.2C91.4933 86.1333 91.82 86.0467 92.14 85.94C92.2067 85.9133 92.2533 85.9133 92.28 85.94C92.3067 85.9533 92.3333 86.0133 92.36 86.12L92.52 87.54C92.5333 87.6333 92.5 87.7133 92.42 87.78Z" fill="black"/>
</g>
<path d="M101.96 34.0482L77.9455 10.0364C76.5613 8.65453 74.3201 8.65453 72.9313 10.0364L67.956 15.0207L74.2811 21.3457C75.7593 20.8529 77.4414 21.1852 78.6101 22.3563C79.7926 23.5365 80.118 25.2392 79.6139 26.7104L85.7052 32.8062C87.1833 32.2951 88.8838 32.6274 90.0594 33.803C91.7117 35.453 91.7117 38.1205 90.0594 39.7705C88.4117 41.4182 85.7487 41.4182 84.101 39.7705C82.8658 38.5307 82.5564 36.7065 83.1752 35.1963L77.4711 29.5222V44.4752C77.8745 44.6723 78.2549 44.9404 78.5895 45.2727C80.2235 46.925 80.2235 49.5879 78.5895 51.231C76.9418 52.8832 74.2605 52.8832 72.6105 51.231C70.9627 49.5833 70.9627 46.925 72.6105 45.2773C73.0276 44.8648 73.4974 44.5531 73.9969 44.3469V29.2472C73.4996 29.0387 73.0253 28.7385 72.6219 28.3283C71.373 27.0793 71.0727 25.2529 71.7144 23.7244L65.4994 17.4797L49.0313 33.9359C47.6562 35.3224 47.6562 37.5659 49.0313 38.9523L73.0482 62.9619C74.4324 64.346 76.6736 64.346 78.0578 62.9619L101.96 39.06C103.347 37.6782 103.347 35.4347 101.96 34.0482Z" fill="#F05032"/>
<defs>
<filter id="filter0_d_33_20" x="0" y="0" width="158" height="108" filterUnits="userSpaceOnUse" color-interpolation-filters="sRGB">
<feFlood flood-opacity="0" result="BackgroundImageFix"/>
<feColorMatrix in="SourceAlpha" type="matrix" values="0 0 0 0 0 0 0 0 0 0 0 0 0 0 0 0 0 0 127 0" result="hardAlpha"/>
<feOffset dy="4"/>
<feGaussianBlur stdDeviation="2"/>
<feComposite in2="hardAlpha" operator="out"/>
<feColorMatrix type="matrix" values="0 0 0 0 0 0 0 0 0 0 0 0 0 0 0 0 0 0 0.25 0"/>
<feBlend mode="normal" in2="BackgroundImageFix" result="effect1_dropShadow_33_20"/>
<feBlend mode="normal" in="SourceGraphic" in2="effect1_dropShadow_33_20" result="shape"/>
</filter>
</defs>
</svg>
