<svg width="158" height="108" viewBox="0 0 158 108" fill="none" xmlns="http://www.w3.org/2000/svg">
<g filter="url(#filter0_d_33_13)">
<rect x="4" width="150" height="100" rx="50" fill="#ECECEC"/>
<path d="M47.604 84.8C47.5507 84.8 47.5027 84.7787 47.46 84.736C47.428 84.704 47.412 84.6613 47.412 84.608V73.888C47.412 73.8347 47.428 73.792 47.46 73.76C47.5027 73.7173 47.5507 73.696 47.604 73.696H48.996C49.0493 73.696 49.092 73.7173 49.124 73.76C49.1667 73.792 49.188 73.8347 49.188 73.888V78.208H51.796V73.888C51.796 73.8347 51.812 73.792 51.844 73.76C51.8867 73.7173 51.9347 73.696 51.988 73.696H53.38C53.4333 73.696 53.476 73.7173 53.508 73.76C53.5507 73.792 53.572 73.8347 53.572 73.888V84.608C53.572 84.6613 53.5507 84.704 53.508 84.736C53.476 84.7787 53.4333 84.8 53.38 84.8H51.988C51.86 84.8 51.796 84.736 51.796 84.608V79.888H49.188V84.608C49.188 84.736 49.124 84.8 48.996 84.8H47.604ZM59.396 75.376V84.608C59.396 84.736 59.332 84.8 59.204 84.8H57.78C57.652 84.8 57.588 84.736 57.588 84.608V75.376H55.076C55.0227 75.376 54.9747 75.36 54.932 75.328C54.9 75.2853 54.884 75.232 54.884 75.168V73.888C54.884 73.8347 54.9 73.792 54.932 73.76C54.9747 73.7173 55.0227 73.696 55.076 73.696H61.924C61.9773 73.696 62.02 73.7173 62.052 73.76C62.0947 73.792 62.116 73.8347 62.116 73.888V75.168C62.116 75.3067 62.052 75.376 61.924 75.376H59.396ZM68.34 84.8C68.2547 84.8 68.2013 84.784 68.18 84.752C68.1587 84.7307 68.148 84.688 68.148 84.624L68.292 77.296V75.952L68.132 77.296L67.332 83.472C67.3107 83.5253 67.284 83.5573 67.252 83.568C67.2307 83.5787 67.1667 83.584 67.06 83.584H66.036C65.9293 83.584 65.86 83.5787 65.828 83.568C65.8067 83.5573 65.7853 83.5253 65.764 83.472L64.868 77.296L64.708 75.952V77.296L64.852 84.624C64.852 84.688 64.8413 84.7307 64.82 84.752C64.7987 84.784 64.7453 84.8 64.66 84.8H63.428C63.3 84.8 63.236 84.7413 63.236 84.624V74.032C63.236 73.8827 63.252 73.792 63.284 73.76C63.316 73.7173 63.4173 73.696 63.588 73.696H65.46C65.5347 73.696 65.5773 73.712 65.588 73.744C65.6093 73.7653 65.636 73.8133 65.668 73.888L66.372 79.248L66.516 80.896L66.644 79.248L67.3 73.888C67.332 73.8133 67.3533 73.7653 67.364 73.744C67.3853 73.712 67.4333 73.696 67.508 73.696H69.412C69.5827 73.696 69.684 73.7173 69.716 73.76C69.748 73.792 69.764 73.8827 69.764 74.032V84.624C69.764 84.7413 69.7 84.8 69.572 84.8H68.34ZM71.924 84.8C71.8707 84.8 71.8227 84.7787 71.78 84.736C71.748 84.704 71.732 84.6613 71.732 84.608V73.888C71.732 73.8347 71.748 73.792 71.78 73.76C71.8227 73.7173 71.8707 73.696 71.924 73.696H73.348C73.4013 73.696 73.444 73.7173 73.476 73.76C73.5187 73.792 73.54 73.8347 73.54 73.888V83.12H77.38C77.508 83.12 77.572 83.1893 77.572 83.328V84.608C77.572 84.6613 77.5507 84.704 77.508 84.736C77.476 84.7787 77.4333 84.8 77.38 84.8H71.924ZM85.124 84.72C85.0387 84.72 84.9693 84.7147 84.916 84.704C84.8733 84.6933 84.8253 84.6507 84.772 84.576L84.132 83.68C83.4387 84.5333 82.6013 84.96 81.62 84.96C81.2573 84.96 80.8947 84.8907 80.532 84.752C80.18 84.6133 79.8707 84.4107 79.604 84.144C79.348 83.8773 79.1347 83.5413 78.964 83.136C78.804 82.7307 78.724 82.2507 78.724 81.696C78.724 80.9707 78.8787 80.3467 79.188 79.824C79.508 79.2907 79.9347 78.8427 80.468 78.48C80.244 78.1173 80.0467 77.7333 79.876 77.328C79.7053 76.9227 79.62 76.4853 79.62 76.016C79.62 75.6107 79.6893 75.2427 79.828 74.912C79.9773 74.5707 80.164 74.2933 80.388 74.08C80.6227 73.856 80.884 73.6907 81.172 73.584C81.46 73.4667 81.7533 73.408 82.052 73.408C82.3293 73.3973 82.6013 73.4507 82.868 73.568C83.1347 73.6853 83.364 73.8507 83.556 74.064C83.7587 74.2667 83.9187 74.5227 84.036 74.832C84.164 75.1413 84.228 75.5093 84.228 75.936C84.228 76.5013 84.084 77.04 83.796 77.552C83.508 78.0533 83.0547 78.512 82.436 78.928L84.084 81.264C84.2333 80.9333 84.34 80.5653 84.404 80.16C84.4787 79.7547 84.516 79.3333 84.516 78.896C84.5267 78.7787 84.5373 78.704 84.548 78.672C84.5693 78.64 84.628 78.624 84.724 78.624H85.588C85.6947 78.624 85.7533 78.64 85.764 78.672C85.7853 78.704 85.796 78.784 85.796 78.912C85.8067 79.2107 85.7907 79.5253 85.748 79.856C85.7053 80.176 85.6467 80.496 85.572 80.816C85.4973 81.136 85.4067 81.4293 85.3 81.696C85.1933 81.9627 85.0707 82.2187 84.932 82.464L86.308 84.416C86.3827 84.512 86.4093 84.5867 86.388 84.64C86.3773 84.6933 86.3133 84.72 86.196 84.72H85.124ZM82.004 74.976C81.684 74.976 81.4333 75.088 81.252 75.312C81.0813 75.5253 80.996 75.7813 80.996 76.08C80.996 76.2507 81.0333 76.4907 81.108 76.8C81.1827 77.1093 81.3587 77.44 81.636 77.792C81.796 77.696 81.9347 77.6 82.052 77.504C82.18 77.3973 82.2973 77.2853 82.404 77.168C82.5213 77.04 82.612 76.8907 82.676 76.72C82.74 76.5387 82.772 76.3253 82.772 76.08C82.772 75.7813 82.708 75.5253 82.58 75.312C82.452 75.088 82.26 74.976 82.004 74.976ZM80.324 81.632C80.324 81.856 80.3507 82.0747 80.404 82.288C80.4573 82.5013 80.548 82.6933 80.676 82.864C80.804 83.0347 80.948 83.1627 81.108 83.248C81.268 83.3227 81.4547 83.3653 81.668 83.376C81.9987 83.376 82.3027 83.2907 82.58 83.12C82.868 82.9493 83.108 82.7467 83.3 82.512L81.284 79.648C81.1347 79.7653 81.0067 79.888 80.9 80.016C80.7933 80.1333 80.692 80.272 80.596 80.432C80.5 80.592 80.4253 80.7893 80.372 81.024C80.3293 81.248 80.3133 81.4507 80.324 81.632ZM93.268 84.608C93.0227 84.6933 92.7613 84.7733 92.484 84.848C92.2173 84.9227 91.9133 84.96 91.572 84.96C91.0173 84.96 90.468 84.8107 89.924 84.512C89.38 84.224 88.916 83.808 88.532 83.264C88.148 82.7093 87.8547 82.08 87.652 81.376C87.46 80.672 87.364 79.952 87.364 79.216C87.364 78.48 87.46 77.76 87.652 77.056C87.8547 76.352 88.1427 75.7387 88.516 75.216C88.9 74.6933 89.364 74.2827 89.908 73.984C90.4627 73.6853 91.0173 73.536 91.572 73.536C91.828 73.536 92.1 73.5627 92.388 73.616C92.6867 73.6587 92.9853 73.7387 93.284 73.856C93.3693 73.888 93.4173 73.9253 93.428 73.968C93.4493 74.0107 93.4547 74.0853 93.444 74.192L93.428 75.408C93.428 75.5573 93.4067 75.6373 93.364 75.648C93.3213 75.648 93.2467 75.6267 93.14 75.584C92.6493 75.3387 92.1267 75.216 91.572 75.216C91.1987 75.216 90.852 75.3227 90.532 75.536C90.212 75.7387 89.9507 76.0427 89.748 76.448C89.5453 76.8427 89.3907 77.2907 89.284 77.792C89.1773 78.2827 89.124 78.7573 89.124 79.216C89.124 79.6747 89.1827 80.16 89.3 80.672C89.4173 81.1733 89.5773 81.6213 89.78 82.016C89.9827 82.4107 90.2547 82.72 90.596 82.944C90.9373 83.168 91.2787 83.28 91.62 83.28C91.8653 83.28 92.1107 83.2533 92.356 83.2C92.612 83.1467 92.8733 83.0667 93.14 82.96C93.2467 82.9067 93.316 82.8907 93.348 82.912C93.38 82.9333 93.396 82.976 93.396 83.04L93.444 84.272C93.4547 84.368 93.4493 84.4373 93.428 84.48C93.4067 84.5333 93.3533 84.576 93.268 84.608ZM100.82 84.064C100.543 84.3307 100.191 84.56 99.764 84.752C99.348 84.944 98.9587 85.0507 98.596 85.072C98.34 85.0933 98.084 85.0933 97.828 85.072C97.5827 85.0613 97.316 85.0293 97.028 84.976C96.74 84.9227 96.4787 84.8693 96.244 84.816C96.02 84.7627 95.8493 84.7093 95.732 84.656C95.572 84.592 95.476 84.544 95.444 84.512C95.412 84.48 95.4067 84.4053 95.428 84.288L95.54 83.184C95.5613 83.1093 95.588 83.0613 95.62 83.04C95.6627 83.0187 95.748 83.0347 95.876 83.088C95.9827 83.1307 96.1533 83.1893 96.388 83.264C96.6333 83.3387 96.8893 83.3973 97.156 83.44C97.4333 83.4827 97.6893 83.5093 97.924 83.52C98.1587 83.5307 98.3933 83.5093 98.628 83.456C99.076 83.3707 99.4067 83.1947 99.62 82.928C99.8333 82.6613 99.94 82.3413 99.94 81.968C99.94 81.6053 99.8067 81.2747 99.54 80.976C99.2733 80.6667 98.9693 80.3947 98.628 80.16C98.1693 79.8507 97.7267 79.552 97.3 79.264C96.8733 78.9653 96.5213 78.672 96.244 78.384C95.9667 78.0853 95.7587 77.7867 95.62 77.488C95.492 77.1893 95.428 76.8587 95.428 76.496C95.428 76.112 95.524 75.7387 95.716 75.376C95.908 75.0133 96.164 74.6933 96.484 74.416C96.804 74.128 97.156 73.9093 97.54 73.76C97.9347 73.6107 98.3987 73.536 98.932 73.536C99.3693 73.536 99.764 73.5733 100.116 73.648C100.468 73.712 100.772 73.7813 101.028 73.856C101.145 73.9093 101.209 73.9573 101.22 74C101.241 74.032 101.247 74.0907 101.236 74.176L101.044 75.2C101.012 75.296 100.969 75.3653 100.916 75.408C100.873 75.4507 100.788 75.4507 100.66 75.408C100.5 75.376 100.335 75.3387 100.164 75.296C99.9933 75.2427 99.8173 75.2 99.636 75.168C99.4653 75.136 99.3 75.1147 99.14 75.104C98.98 75.0933 98.8253 75.0933 98.676 75.104C98.196 75.168 97.8333 75.3333 97.588 75.6C97.3533 75.8667 97.236 76.1973 97.236 76.592C97.236 76.848 97.3427 77.1093 97.556 77.376C97.7693 77.6427 98.1373 77.9467 98.66 78.288C99.2573 78.6827 99.7533 79.024 100.148 79.312C100.543 79.6 100.863 79.8827 101.108 80.16C101.353 80.4267 101.519 80.6987 101.604 80.976C101.7 81.2427 101.748 81.536 101.748 81.856C101.748 82.72 101.439 83.456 100.82 84.064ZM108.82 84.064C108.543 84.3307 108.191 84.56 107.764 84.752C107.348 84.944 106.959 85.0507 106.596 85.072C106.34 85.0933 106.084 85.0933 105.828 85.072C105.583 85.0613 105.316 85.0293 105.028 84.976C104.74 84.9227 104.479 84.8693 104.244 84.816C104.02 84.7627 103.849 84.7093 103.732 84.656C103.572 84.592 103.476 84.544 103.444 84.512C103.412 84.48 103.407 84.4053 103.428 84.288L103.54 83.184C103.561 83.1093 103.588 83.0613 103.62 83.04C103.663 83.0187 103.748 83.0347 103.876 83.088C103.983 83.1307 104.153 83.1893 104.388 83.264C104.633 83.3387 104.889 83.3973 105.156 83.44C105.433 83.4827 105.689 83.5093 105.924 83.52C106.159 83.5307 106.393 83.5093 106.628 83.456C107.076 83.3707 107.407 83.1947 107.62 82.928C107.833 82.6613 107.94 82.3413 107.94 81.968C107.94 81.6053 107.807 81.2747 107.54 80.976C107.273 80.6667 106.969 80.3947 106.628 80.16C106.169 79.8507 105.727 79.552 105.3 79.264C104.873 78.9653 104.521 78.672 104.244 78.384C103.967 78.0853 103.759 77.7867 103.62 77.488C103.492 77.1893 103.428 76.8587 103.428 76.496C103.428 76.112 103.524 75.7387 103.716 75.376C103.908 75.0133 104.164 74.6933 104.484 74.416C104.804 74.128 105.156 73.9093 105.54 73.76C105.935 73.6107 106.399 73.536 106.932 73.536C107.369 73.536 107.764 73.5733 108.116 73.648C108.468 73.712 108.772 73.7813 109.028 73.856C109.145 73.9093 109.209 73.9573 109.22 74C109.241 74.032 109.247 74.0907 109.236 74.176L109.044 75.2C109.012 75.296 108.969 75.3653 108.916 75.408C108.873 75.4507 108.788 75.4507 108.66 75.408C108.5 75.376 108.335 75.3387 108.164 75.296C107.993 75.2427 107.817 75.2 107.636 75.168C107.465 75.136 107.3 75.1147 107.14 75.104C106.98 75.0933 106.825 75.0933 106.676 75.104C106.196 75.168 105.833 75.3333 105.588 75.6C105.353 75.8667 105.236 76.1973 105.236 76.592C105.236 76.848 105.343 77.1093 105.556 77.376C105.769 77.6427 106.137 77.9467 106.66 78.288C107.257 78.6827 107.753 79.024 108.148 79.312C108.543 79.6 108.863 79.8827 109.108 80.16C109.353 80.4267 109.519 80.6987 109.604 80.976C109.7 81.2427 109.748 81.536 109.748 81.856C109.748 82.72 109.439 83.456 108.82 84.064Z" fill="black"/>
</g>
<path d="M37 17H80.75L76.7708 61.9229L58.8271 67L40.9854 61.9208L37 17ZM51.6479 37.3125L51.1646 31.65L72.1208 31.6562L72.6 26.1937L45.15 26.1875L46.6042 42.875H65.6167L64.9375 50.0125L58.875 51.6875L52.7188 50L52.3271 45.6042H46.8917L47.5792 54.2937L58.875 57.3146L70.0812 54.3083L71.6312 37.3146H51.6479V37.3125Z" fill="#E34F26"/>
<path d="M74 17H117.75L113.771 61.9229L95.8271 67L77.9833 61.9208L74 17ZM109.604 26.1937L82.1458 26.1875L82.5896 31.65L103.683 31.6542L103.152 37.3125H89.3187L89.8188 42.6729H102.698L101.935 50.0125L95.8729 51.6875L89.7146 50L89.3229 45.6042H83.8854L84.4896 53.6354L95.875 57.1833L107.069 53.9958L109.604 26.1958V26.1937Z" fill="#1572B6"/>
<defs>
<filter id="filter0_d_33_13" x="0" y="0" width="158" height="108" filterUnits="userSpaceOnUse" color-interpolation-filters="sRGB">
<feFlood flood-opacity="0" result="BackgroundImageFix"/>
<feColorMatrix in="SourceAlpha" type="matrix" values="0 0 0 0 0 0 0 0 0 0 0 0 0 0 0 0 0 0 127 0" result="hardAlpha"/>
<feOffset dy="4"/>
<feGaussianBlur stdDeviation="2"/>
<feComposite in2="hardAlpha" operator="out"/>
<feColorMatrix type="matrix" values="0 0 0 0 0 0 0 0 0 0 0 0 0 0 0 0 0 0 0.25 0"/>
<feBlend mode="normal" in2="BackgroundImageFix" result="effect1_dropShadow_33_13"/>
<feBlend mode="normal" in="SourceGraphic" in2="effect1_dropShadow_33_13" result="shape"/>
</filter>
</defs>
</svg>
