<svg width="158" height="108" viewBox="0 0 158 108" fill="none" xmlns="http://www.w3.org/2000/svg">
<g filter="url(#filter0_d_33_15)">
<rect x="4" width="150" height="100" rx="50" fill="#ECECEC"/>
<path d="M39.176 73.376C39.1227 73.376 39.0747 73.36 39.032 73.328C39 73.2853 38.984 73.232 38.984 73.168V71.888C38.984 71.8347 39 71.792 39.032 71.76C39.0747 71.7173 39.1227 71.696 39.176 71.696H43.576C43.6293 71.696 43.6773 71.7173 43.72 71.76C43.7627 71.792 43.784 71.8347 43.784 71.888V79.44C43.784 80.752 43.5227 81.664 43 82.176C42.4773 82.688 41.7627 82.944 40.856 82.944C39.9493 82.944 39.24 82.688 38.728 82.176C38.2267 81.664 37.976 80.7147 37.976 79.328V78.944C37.976 78.8053 38.04 78.736 38.168 78.736H39.608C39.6613 78.736 39.704 78.7627 39.736 78.816C39.7787 78.8587 39.8 78.9067 39.8 78.96V79.456C39.8 80.224 39.8907 80.72 40.072 80.944C40.264 81.1573 40.5307 81.264 40.872 81.264C41.2027 81.264 41.4693 81.1413 41.672 80.896C41.8747 80.64 41.976 80.1813 41.976 79.52V73.376H39.176ZM50.712 82.8C50.6373 82.8 50.5893 82.7947 50.568 82.784C50.5573 82.7733 50.552 82.736 50.552 82.672V81.936C50.296 82.3093 49.976 82.5867 49.592 82.768C49.208 82.96 48.8187 83.056 48.424 83.056C48.1147 83.056 47.784 82.9973 47.432 82.88C47.0907 82.7733 46.7973 82.608 46.552 82.384C46.3067 82.1707 46.1093 81.904 45.96 81.584C45.8213 81.264 45.752 80.8907 45.752 80.464C45.752 80.0053 45.8427 79.5893 46.024 79.216C46.216 78.832 46.504 78.512 46.888 78.256C47.272 78 47.736 77.8133 48.28 77.696C48.8347 77.568 49.5387 77.504 50.392 77.504C50.392 77.312 50.3707 77.136 50.328 76.976C50.296 76.8053 50.232 76.6453 50.136 76.496C50.04 76.3467 49.9013 76.224 49.72 76.128C49.5493 76.0213 49.336 75.968 49.08 75.968C48.7387 75.968 48.3813 76.032 48.008 76.16C47.6453 76.288 47.304 76.4587 46.984 76.672C46.824 76.7787 46.712 76.8267 46.648 76.816C46.5947 76.8053 46.568 76.7467 46.568 76.64V75.392C46.568 75.3707 46.5627 75.3333 46.552 75.28C46.552 75.216 46.5733 75.168 46.616 75.136C46.6693 75.0827 46.7387 75.0347 46.824 74.992C47.144 74.8107 47.496 74.6613 47.88 74.544C48.264 74.4267 48.6533 74.368 49.048 74.368C50.072 74.368 50.8347 74.6293 51.336 75.152C51.848 75.664 52.104 76.4053 52.104 77.376V80.896C52.104 81.184 52.104 81.4773 52.104 81.776C52.1147 82.0747 52.136 82.3413 52.168 82.576C52.1787 82.7253 52.12 82.8 51.992 82.8H50.712ZM47.464 80.352C47.464 80.7253 47.576 81.008 47.8 81.2C48.024 81.3813 48.264 81.472 48.52 81.472C49.0853 81.472 49.5493 81.2533 49.912 80.816C50.2747 80.368 50.456 79.8293 50.456 79.2V79.024C49.3147 79.024 48.5307 79.1413 48.104 79.376C47.6773 79.6 47.464 79.9253 47.464 80.352ZM57.672 82.8H56.296C56.232 82.8 56.184 82.7893 56.152 82.768C56.1307 82.7573 56.1093 82.72 56.088 82.656L53.576 74.752C53.5547 74.6987 53.5547 74.656 53.576 74.624C53.5973 74.592 53.6667 74.576 53.784 74.576H55.096C55.1493 74.576 55.192 74.5867 55.224 74.608C55.256 74.6187 55.2827 74.6507 55.304 74.704L56.504 78.752L56.984 80.56L57.448 78.752L58.648 74.704C58.6693 74.6507 58.696 74.6187 58.728 74.608C58.7707 74.5867 58.8187 74.576 58.872 74.576H60.2C60.3173 74.576 60.3867 74.592 60.408 74.624C60.4293 74.656 60.4293 74.6987 60.408 74.752L57.864 82.656C57.8427 82.72 57.8213 82.7573 57.8 82.768C57.7787 82.7893 57.736 82.8 57.672 82.8ZM66.712 82.8C66.6373 82.8 66.5893 82.7947 66.568 82.784C66.5573 82.7733 66.552 82.736 66.552 82.672V81.936C66.296 82.3093 65.976 82.5867 65.592 82.768C65.208 82.96 64.8187 83.056 64.424 83.056C64.1147 83.056 63.784 82.9973 63.432 82.88C63.0907 82.7733 62.7973 82.608 62.552 82.384C62.3067 82.1707 62.1093 81.904 61.96 81.584C61.8213 81.264 61.752 80.8907 61.752 80.464C61.752 80.0053 61.8427 79.5893 62.024 79.216C62.216 78.832 62.504 78.512 62.888 78.256C63.272 78 63.736 77.8133 64.28 77.696C64.8347 77.568 65.5387 77.504 66.392 77.504C66.392 77.312 66.3707 77.136 66.328 76.976C66.296 76.8053 66.232 76.6453 66.136 76.496C66.04 76.3467 65.9013 76.224 65.72 76.128C65.5493 76.0213 65.336 75.968 65.08 75.968C64.7387 75.968 64.3813 76.032 64.008 76.16C63.6453 76.288 63.304 76.4587 62.984 76.672C62.824 76.7787 62.712 76.8267 62.648 76.816C62.5947 76.8053 62.568 76.7467 62.568 76.64V75.392C62.568 75.3707 62.5627 75.3333 62.552 75.28C62.552 75.216 62.5733 75.168 62.616 75.136C62.6693 75.0827 62.7387 75.0347 62.824 74.992C63.144 74.8107 63.496 74.6613 63.88 74.544C64.264 74.4267 64.6533 74.368 65.048 74.368C66.072 74.368 66.8347 74.6293 67.336 75.152C67.848 75.664 68.104 76.4053 68.104 77.376V80.896C68.104 81.184 68.104 81.4773 68.104 81.776C68.1147 82.0747 68.136 82.3413 68.168 82.576C68.1787 82.7253 68.12 82.8 67.992 82.8H66.712ZM63.464 80.352C63.464 80.7253 63.576 81.008 63.8 81.2C64.024 81.3813 64.264 81.472 64.52 81.472C65.0853 81.472 65.5493 81.2533 65.912 80.816C66.2747 80.368 66.456 79.8293 66.456 79.2V79.024C65.3147 79.024 64.5307 79.1413 64.104 79.376C63.6773 79.6 63.464 79.9253 63.464 80.352ZM74.76 82.464C74.216 82.8373 73.5333 83.0293 72.712 83.04C72.4987 83.04 72.2747 83.0293 72.04 83.008C71.816 82.9867 71.6027 82.96 71.4 82.928C71.208 82.9067 71.0107 82.8693 70.808 82.816C70.616 82.7733 70.472 82.7307 70.376 82.688C70.3333 82.6773 70.2853 82.6507 70.232 82.608C70.1893 82.5653 70.1733 82.5067 70.184 82.432L70.28 81.36C70.2907 81.264 70.3067 81.2053 70.328 81.184C70.3493 81.1627 70.4187 81.168 70.536 81.2C70.9093 81.3067 71.2773 81.3867 71.64 81.44C72.0133 81.4827 72.3493 81.504 72.648 81.504C73.1173 81.504 73.464 81.424 73.688 81.264C73.9227 81.0933 74.04 80.864 74.04 80.576C74.04 80.4267 73.9813 80.272 73.864 80.112C73.7467 79.9413 73.5493 79.7707 73.272 79.6C72.984 79.4293 72.6853 79.2587 72.376 79.088C72.0667 78.9067 71.7627 78.736 71.464 78.576C71.1227 78.384 70.8347 78.1173 70.6 77.776C70.376 77.4347 70.264 77.104 70.264 76.784C70.264 76.3893 70.344 76.0373 70.504 75.728C70.664 75.408 70.8773 75.1413 71.144 74.928C71.4107 74.7147 71.7147 74.56 72.056 74.464C72.408 74.368 72.776 74.32 73.16 74.32C73.3627 74.32 73.5707 74.3307 73.784 74.352C74.008 74.3733 74.2213 74.4053 74.424 74.448C74.6373 74.48 74.824 74.5227 74.984 74.576C75.1547 74.6187 75.2827 74.6667 75.368 74.72C75.4213 74.7413 75.448 74.768 75.448 74.8C75.4587 74.8213 75.4587 74.8587 75.448 74.912L75.352 75.968C75.3413 76.0747 75.3093 76.144 75.256 76.176C75.2027 76.1973 75.128 76.1867 75.032 76.144C74.8293 76.0693 74.6 76 74.344 75.936C74.1413 75.8933 73.944 75.8667 73.752 75.856C73.5707 75.8347 73.4053 75.824 73.256 75.824C72.8187 75.824 72.5093 75.904 72.328 76.064C72.1467 76.224 72.056 76.4 72.056 76.592C72.056 76.7733 72.1573 76.96 72.36 77.152C72.5627 77.3333 72.8187 77.504 73.128 77.664C73.4693 77.8347 73.7787 78.0053 74.056 78.176C74.3333 78.336 74.5413 78.4693 74.68 78.576C75.064 78.8427 75.352 79.136 75.544 79.456C75.736 79.7653 75.832 80.0907 75.832 80.432C75.832 81.264 75.4747 81.9413 74.76 82.464ZM83.736 82.768C83.6293 82.8107 83.496 82.848 83.336 82.88C83.176 82.912 82.9947 82.9387 82.792 82.96C82.5893 82.9813 82.408 82.992 82.248 82.992C82.088 83.0027 81.912 83.0027 81.72 82.992C81.1013 82.9493 80.5733 82.8107 80.136 82.576C79.7093 82.3413 79.3307 82.0373 79 81.664C78.68 81.2907 78.4347 80.848 78.264 80.336C78.104 79.824 78.024 79.2693 78.024 78.672C78.024 78.0533 78.1253 77.4827 78.328 76.96C78.5307 76.4267 78.808 75.968 79.16 75.584C79.5227 75.2 79.928 74.9067 80.376 74.704C80.8347 74.4907 81.3787 74.384 82.008 74.384C82.264 74.384 82.5467 74.4107 82.856 74.464C83.176 74.5067 83.4853 74.5813 83.784 74.688C83.8267 74.6987 83.8587 74.72 83.88 74.752C83.9013 74.7733 83.9067 74.832 83.896 74.928L83.752 76.048C83.7413 76.1227 83.72 76.176 83.688 76.208C83.656 76.24 83.5973 76.2453 83.512 76.224C83.288 76.1387 83.0427 76.0747 82.776 76.032C82.5093 75.9893 82.2427 75.968 81.976 75.968C81.1973 75.968 80.632 76.224 80.28 76.736C79.9387 77.248 79.768 77.8933 79.768 78.672C79.768 79.4187 79.9387 80.0373 80.28 80.528C80.632 81.0187 81.144 81.312 81.816 81.408C82.424 81.4827 83.0107 81.4347 83.576 81.264C83.672 81.2213 83.7307 81.216 83.752 81.248C83.784 81.28 83.8053 81.328 83.816 81.392L83.896 82.512C83.9067 82.5867 83.9013 82.64 83.88 82.672C83.8693 82.7147 83.8213 82.7467 83.736 82.768ZM85.912 82.8C85.8587 82.8 85.8107 82.7787 85.768 82.736C85.736 82.704 85.72 82.656 85.72 82.592V81.344C85.72 81.2907 85.736 81.248 85.768 81.216C85.8107 81.1733 85.8587 81.152 85.912 81.152H86.92V76.736V76.176H85.608C85.5547 76.176 85.5067 76.16 85.464 76.128C85.432 76.0853 85.416 76.032 85.416 75.968V74.768C85.416 74.7147 85.432 74.672 85.464 74.64C85.5067 74.5973 85.5547 74.576 85.608 74.576H88.232C88.2747 74.576 88.3067 74.592 88.328 74.624C88.36 74.6453 88.376 74.6773 88.376 74.72V76.08C88.4827 75.856 88.5947 75.664 88.712 75.504C88.84 75.3333 88.9733 75.184 89.112 75.056C89.2613 74.9173 89.4267 74.7947 89.608 74.688C89.8 74.5707 90.0773 74.4693 90.44 74.384C90.8987 74.3093 91.3413 74.32 91.768 74.416C92.2053 74.512 92.568 74.6773 92.856 74.912C92.9093 74.9653 92.9307 75.0133 92.92 75.056C92.9093 75.0987 92.8987 75.1413 92.888 75.184L92.36 76.272C92.3387 76.336 92.3013 76.3787 92.248 76.4C92.2053 76.4213 92.1467 76.4107 92.072 76.368C91.8267 76.2293 91.5547 76.1333 91.256 76.08C90.9573 76.0267 90.664 76.0267 90.376 76.08C89.8747 76.176 89.48 76.416 89.192 76.8C88.904 77.184 88.728 77.5733 88.664 77.968C88.6 78.3627 88.568 78.8267 88.568 79.36V81.152H90.232C90.2853 81.152 90.328 81.1733 90.36 81.216C90.4027 81.248 90.424 81.2907 90.424 81.344V82.592C90.424 82.7307 90.36 82.8 90.232 82.8H85.912ZM94.072 82.8C94.0187 82.8 93.9707 82.7787 93.928 82.736C93.896 82.704 93.88 82.656 93.88 82.592V81.344C93.88 81.2907 93.896 81.248 93.928 81.216C93.9707 81.1733 94.0187 81.152 94.072 81.152H96.248V76.224H94.36C94.3067 76.224 94.2587 76.208 94.216 76.176C94.184 76.1333 94.168 76.08 94.168 76.016V74.768C94.168 74.7147 94.184 74.672 94.216 74.64C94.2587 74.5973 94.3067 74.576 94.36 74.576H97.784C97.8373 74.576 97.88 74.5973 97.912 74.64C97.9547 74.672 97.976 74.7147 97.976 74.768V81.152H99.944C99.9973 81.152 100.04 81.1733 100.072 81.216C100.115 81.248 100.136 81.2907 100.136 81.344V82.592C100.136 82.7307 100.072 82.8 99.944 82.8H94.072ZM96.888 73.312C96.5467 73.312 96.2587 73.1947 96.024 72.96C95.7893 72.7253 95.672 72.4427 95.672 72.112C95.672 71.76 95.7893 71.4667 96.024 71.232C96.2587 70.9867 96.5467 70.864 96.888 70.864C97.24 70.864 97.5333 70.9867 97.768 71.232C98.0133 71.4667 98.136 71.76 98.136 72.112C98.136 72.4427 98.0133 72.7253 97.768 72.96C97.5333 73.1947 97.24 73.312 96.888 73.312ZM105.416 74.384C105.907 74.384 106.333 74.4907 106.696 74.704C107.069 74.9067 107.384 75.2 107.64 75.584C107.907 75.9573 108.109 76.4213 108.248 76.976C108.387 77.52 108.456 78.1013 108.456 78.72C108.456 79.1893 108.381 79.712 108.232 80.288C108.093 80.8533 107.891 81.3387 107.624 81.744C107.368 82.1493 107.053 82.4587 106.68 82.672C106.317 82.896 105.896 83.008 105.416 83.008C105.064 83.008 104.728 82.9227 104.408 82.752C104.099 82.592 103.827 82.3467 103.592 82.016V84.992C103.592 85.0773 103.581 85.1307 103.56 85.152C103.539 85.1733 103.496 85.184 103.432 85.184H102.056C101.939 85.184 101.88 85.12 101.88 84.992V74.816C101.88 74.656 101.955 74.576 102.104 74.576H103.384C103.523 74.576 103.592 74.656 103.592 74.816V75.44C103.773 75.12 104.035 74.864 104.376 74.672C104.717 74.48 105.064 74.384 105.416 74.384ZM105.048 81.376C105.56 81.376 105.955 81.1093 106.232 80.576C106.509 80.0427 106.648 79.424 106.648 78.72C106.648 77.9627 106.504 77.3227 106.216 76.8C105.928 76.2667 105.539 76 105.048 76C104.845 76 104.648 76.0693 104.456 76.208C104.264 76.3467 104.093 76.544 103.944 76.8C103.805 77.056 103.699 77.3653 103.624 77.728C103.549 78.08 103.512 78.4107 103.512 78.72C103.512 79.4773 103.645 80.112 103.912 80.624C104.189 81.1253 104.568 81.376 105.048 81.376ZM116.136 82.624C115.741 82.7627 115.341 82.864 114.936 82.928C114.541 82.992 114.205 83.0187 113.928 83.008C113.373 83.008 112.931 82.912 112.6 82.72C112.269 82.5387 112.04 82.3253 111.912 82.08C111.763 81.8027 111.672 81.4773 111.64 81.104C111.608 80.7307 111.592 80.224 111.592 79.584V76.56H109.832C109.779 76.56 109.731 76.544 109.688 76.512C109.656 76.4693 109.64 76.4213 109.64 76.368V75.104C109.64 75.0507 109.656 75.008 109.688 74.976C109.731 74.9333 109.779 74.912 109.832 74.912H111.592V72.592C111.592 72.5387 111.613 72.496 111.656 72.464C111.699 72.4213 111.747 72.4 111.8 72.4H113.096C113.16 72.4 113.208 72.4213 113.24 72.464C113.283 72.496 113.304 72.5387 113.304 72.592V74.912H115.992C116.045 74.912 116.088 74.9333 116.12 74.976C116.163 75.008 116.184 75.0507 116.184 75.104V76.368C116.184 76.4213 116.163 76.4693 116.12 76.512C116.088 76.544 116.045 76.56 115.992 76.56H113.304V79.68C113.304 80.3733 113.32 80.816 113.352 81.008C113.373 81.2107 113.469 81.3333 113.64 81.376C113.821 81.4187 114.061 81.44 114.36 81.44C114.605 81.44 114.861 81.4133 115.128 81.36C115.395 81.3067 115.656 81.2373 115.912 81.152C115.965 81.1307 116.003 81.1307 116.024 81.152C116.045 81.1627 116.067 81.2107 116.088 81.296L116.216 82.432C116.227 82.5067 116.2 82.5707 116.136 82.624Z" fill="black"/>
</g>
<path d="M51 7H106V62H51V7ZM101.495 48.8825C101.094 46.3731 99.4596 44.2648 94.6127 42.2985C92.926 41.5079 91.0515 40.9579 90.4946 39.686C90.286 38.9298 90.254 38.5173 90.3892 38.0704C90.7329 36.59 92.486 36.1454 93.861 36.5579C94.7548 36.8329 95.5798 37.5204 96.0977 38.6204C98.4673 37.0713 98.4673 37.0713 100.12 36.0423C99.5008 35.0798 99.1938 34.665 98.7767 34.2548C97.3329 32.6392 95.4102 31.8142 92.2821 31.8852L90.6665 32.0892C89.1173 32.4673 87.6415 33.2923 86.7477 34.3923C84.1352 37.3508 84.8892 42.5071 88.0517 44.6383C91.1798 46.9758 95.754 47.4892 96.3383 49.6915C96.8883 52.3727 94.3446 53.2321 91.8329 52.9227C89.9744 52.5102 88.9454 51.5798 87.811 49.861L83.6173 52.2696C84.0985 53.3696 84.6485 53.8485 85.4735 54.811C89.461 58.8352 99.4298 58.629 101.22 52.5102C101.286 52.304 101.77 50.8946 101.389 48.729L101.495 48.8825ZM80.9085 32.2794H75.7569C75.7569 36.7206 75.7362 41.1344 75.7362 45.5825C75.7362 48.4058 75.8806 50.9977 75.42 51.7952C74.6637 53.3742 72.7158 53.1725 71.8313 52.8952C70.9238 52.446 70.4631 51.8273 69.9292 50.9358C69.7848 50.6952 69.6771 50.4867 69.6381 50.4867L65.4558 53.0648C66.1548 54.5085 67.1746 55.7506 68.49 56.5412C70.4494 57.71 73.0825 58.0881 75.8394 57.4694C77.6338 56.9515 79.1806 55.8858 79.9896 54.2358C81.1583 52.1046 80.9108 49.4921 80.8994 46.5679C80.9269 41.8608 80.8994 37.1515 80.8994 32.4077L80.9085 32.2794Z" fill="#F7DF1E"/>
<defs>
<filter id="filter0_d_33_15" x="0" y="0" width="158" height="108" filterUnits="userSpaceOnUse" color-interpolation-filters="sRGB">
<feFlood flood-opacity="0" result="BackgroundImageFix"/>
<feColorMatrix in="SourceAlpha" type="matrix" values="0 0 0 0 0 0 0 0 0 0 0 0 0 0 0 0 0 0 127 0" result="hardAlpha"/>
<feOffset dy="4"/>
<feGaussianBlur stdDeviation="2"/>
<feComposite in2="hardAlpha" operator="out"/>
<feColorMatrix type="matrix" values="0 0 0 0 0 0 0 0 0 0 0 0 0 0 0 0 0 0 0.25 0"/>
<feBlend mode="normal" in2="BackgroundImageFix" result="effect1_dropShadow_33_15"/>
<feBlend mode="normal" in="SourceGraphic" in2="effect1_dropShadow_33_15" result="shape"/>
</filter>
</defs>
</svg>
