<svg width="158" height="108" viewBox="0 0 158 108" fill="none" xmlns="http://www.w3.org/2000/svg">
<g filter="url(#filter0_d_32_2)">
<rect x="4" width="150" height="100" rx="50" fill="#ECECEC"/>
</g>
<path d="M63.272 88.8C63.1547 88.8 63.0747 88.7947 63.032 88.784C62.9893 88.7733 62.9413 88.7307 62.888 88.656L60.664 84.432H59.656V88.624C59.656 88.7413 59.5867 88.8 59.448 88.8H58.088C57.96 88.8 57.896 88.7413 57.896 88.624V77.872C57.896 77.8187 57.912 77.776 57.944 77.744C57.9867 77.712 58.0347 77.696 58.088 77.696H60.472C61.6453 77.696 62.5467 78.0107 63.176 78.64C63.8053 79.2587 64.12 80.0587 64.12 81.04C64.12 81.7547 63.9547 82.3733 63.624 82.896C63.304 83.408 62.8667 83.792 62.312 84.048L64.824 88.608C64.9093 88.736 64.8507 88.8 64.648 88.8H63.272ZM59.656 79.376V82.768H60.44C61.0373 82.768 61.5013 82.6293 61.832 82.352C62.1627 82.064 62.328 81.632 62.328 81.056C62.328 80.4693 62.1733 80.0427 61.864 79.776C61.5547 79.5093 61.1493 79.376 60.648 79.376H59.656ZM72.184 85.168C72.184 85.2533 72.1627 85.3173 72.12 85.36C72.088 85.392 72.04 85.408 71.976 85.408H67.592C67.6027 85.9733 67.7467 86.4587 68.024 86.864C68.312 87.2587 68.7707 87.456 69.4 87.456C69.784 87.456 70.12 87.4133 70.408 87.328C70.7067 87.232 71.0107 87.072 71.32 86.848C71.4053 86.8053 71.4533 86.8107 71.464 86.864C71.4853 86.9173 71.496 86.9813 71.496 87.056V88.192C71.496 88.288 71.48 88.3573 71.448 88.4C71.416 88.4533 71.3627 88.5067 71.288 88.56C71.0107 88.7093 70.728 88.8267 70.44 88.912C70.1627 88.9973 69.816 89.04 69.4 89.04C68.184 89.04 67.2773 88.6507 66.68 87.872C66.0827 87.0933 65.784 86.064 65.784 84.784C65.784 84.24 65.848 83.712 65.976 83.2C66.104 82.6773 66.3013 82.208 66.568 81.792C66.8453 81.376 67.192 81.0347 67.608 80.768C68.024 80.5013 68.504 80.368 69.048 80.368C69.624 80.368 70.1093 80.4907 70.504 80.736C70.9093 80.9813 71.2347 81.3067 71.48 81.712C71.736 82.1067 71.9173 82.56 72.024 83.072C72.1413 83.584 72.2 84.1387 72.2 84.736C72.2 84.8107 72.1947 84.896 72.184 84.992C72.184 85.0773 72.184 85.136 72.184 85.168ZM69.016 81.904C68.76 81.904 68.5307 81.9787 68.328 82.128C68.136 82.2667 67.9813 82.4587 67.864 82.704C67.7573 82.9387 67.6827 83.1573 67.64 83.36C67.608 83.552 67.592 83.7067 67.592 83.824H70.456C70.456 83.7067 70.4347 83.552 70.392 83.36C70.36 83.1573 70.2853 82.9387 70.168 82.704C70.0613 82.4587 69.9067 82.2667 69.704 82.128C69.5013 81.9787 69.272 81.904 69.016 81.904ZM78.712 88.8C78.6373 88.8 78.5893 88.7947 78.568 88.784C78.5573 88.7733 78.552 88.736 78.552 88.672V87.936C78.296 88.3093 77.976 88.5867 77.592 88.768C77.208 88.96 76.8187 89.056 76.424 89.056C76.1147 89.056 75.784 88.9973 75.432 88.88C75.0907 88.7733 74.7973 88.608 74.552 88.384C74.3067 88.1707 74.1093 87.904 73.96 87.584C73.8213 87.264 73.752 86.8907 73.752 86.464C73.752 86.0053 73.8427 85.5893 74.024 85.216C74.216 84.832 74.504 84.512 74.888 84.256C75.272 84 75.736 83.8133 76.28 83.696C76.8347 83.568 77.5387 83.504 78.392 83.504C78.392 83.312 78.3707 83.136 78.328 82.976C78.296 82.8053 78.232 82.6453 78.136 82.496C78.04 82.3467 77.9013 82.224 77.72 82.128C77.5493 82.0213 77.336 81.968 77.08 81.968C76.7387 81.968 76.3813 82.032 76.008 82.16C75.6453 82.288 75.304 82.4587 74.984 82.672C74.824 82.7787 74.712 82.8267 74.648 82.816C74.5947 82.8053 74.568 82.7467 74.568 82.64V81.392C74.568 81.3707 74.5627 81.3333 74.552 81.28C74.552 81.216 74.5733 81.168 74.616 81.136C74.6693 81.0827 74.7387 81.0347 74.824 80.992C75.144 80.8107 75.496 80.6613 75.88 80.544C76.264 80.4267 76.6533 80.368 77.048 80.368C78.072 80.368 78.8347 80.6293 79.336 81.152C79.848 81.664 80.104 82.4053 80.104 83.376V86.896C80.104 87.184 80.104 87.4773 80.104 87.776C80.1147 88.0747 80.136 88.3413 80.168 88.576C80.1787 88.7253 80.12 88.8 79.992 88.8H78.712ZM75.464 86.352C75.464 86.7253 75.576 87.008 75.8 87.2C76.024 87.3813 76.264 87.472 76.52 87.472C77.0853 87.472 77.5493 87.2533 77.912 86.816C78.2747 86.368 78.456 85.8293 78.456 85.2V85.024C77.3147 85.024 76.5307 85.1413 76.104 85.376C75.6773 85.6 75.464 85.9253 75.464 86.352ZM87.736 88.768C87.6293 88.8107 87.496 88.848 87.336 88.88C87.176 88.912 86.9947 88.9387 86.792 88.96C86.5893 88.9813 86.408 88.992 86.248 88.992C86.088 89.0027 85.912 89.0027 85.72 88.992C85.1013 88.9493 84.5733 88.8107 84.136 88.576C83.7093 88.3413 83.3307 88.0373 83 87.664C82.68 87.2907 82.4347 86.848 82.264 86.336C82.104 85.824 82.024 85.2693 82.024 84.672C82.024 84.0533 82.1253 83.4827 82.328 82.96C82.5307 82.4267 82.808 81.968 83.16 81.584C83.5227 81.2 83.928 80.9067 84.376 80.704C84.8347 80.4907 85.3787 80.384 86.008 80.384C86.264 80.384 86.5467 80.4107 86.856 80.464C87.176 80.5067 87.4853 80.5813 87.784 80.688C87.8267 80.6987 87.8587 80.72 87.88 80.752C87.9013 80.7733 87.9067 80.832 87.896 80.928L87.752 82.048C87.7413 82.1227 87.72 82.176 87.688 82.208C87.656 82.24 87.5973 82.2453 87.512 82.224C87.288 82.1387 87.0427 82.0747 86.776 82.032C86.5093 81.9893 86.2427 81.968 85.976 81.968C85.1973 81.968 84.632 82.224 84.28 82.736C83.9387 83.248 83.768 83.8933 83.768 84.672C83.768 85.4187 83.9387 86.0373 84.28 86.528C84.632 87.0187 85.144 87.312 85.816 87.408C86.424 87.4827 87.0107 87.4347 87.576 87.264C87.672 87.2213 87.7307 87.216 87.752 87.248C87.784 87.28 87.8053 87.328 87.816 87.392L87.896 88.512C87.9067 88.5867 87.9013 88.64 87.88 88.672C87.8693 88.7147 87.8213 88.7467 87.736 88.768ZM96.136 88.624C95.7413 88.7627 95.3413 88.864 94.936 88.928C94.5413 88.992 94.2053 89.0187 93.928 89.008C93.3733 89.008 92.9307 88.912 92.6 88.72C92.2693 88.5387 92.04 88.3253 91.912 88.08C91.7627 87.8027 91.672 87.4773 91.64 87.104C91.608 86.7307 91.592 86.224 91.592 85.584V82.56H89.832C89.7787 82.56 89.7307 82.544 89.688 82.512C89.656 82.4693 89.64 82.4213 89.64 82.368V81.104C89.64 81.0507 89.656 81.008 89.688 80.976C89.7307 80.9333 89.7787 80.912 89.832 80.912H91.592V78.592C91.592 78.5387 91.6133 78.496 91.656 78.464C91.6987 78.4213 91.7467 78.4 91.8 78.4H93.096C93.16 78.4 93.208 78.4213 93.24 78.464C93.2827 78.496 93.304 78.5387 93.304 78.592V80.912H95.992C96.0453 80.912 96.088 80.9333 96.12 80.976C96.1627 81.008 96.184 81.0507 96.184 81.104V82.368C96.184 82.4213 96.1627 82.4693 96.12 82.512C96.088 82.544 96.0453 82.56 95.992 82.56H93.304V85.68C93.304 86.3733 93.32 86.816 93.352 87.008C93.3733 87.2107 93.4693 87.3333 93.64 87.376C93.8213 87.4187 94.0613 87.44 94.36 87.44C94.6053 87.44 94.8613 87.4133 95.128 87.36C95.3947 87.3067 95.656 87.2373 95.912 87.152C95.9653 87.1307 96.0027 87.1307 96.024 87.152C96.0453 87.1627 96.0667 87.2107 96.088 87.296L96.216 88.432C96.2267 88.5067 96.2 88.5707 96.136 88.624Z" fill="black"/>
<path d="M84.575 38.007C84.575 39.6712 83.9864 41.2672 82.9386 42.4442C81.8908 43.6212 80.4696 44.2828 78.9875 44.2835C77.5049 44.2835 76.0831 43.6222 75.0348 42.4452C73.9864 41.2681 73.3975 39.6716 73.3975 38.007C73.3975 36.3429 73.9861 34.7468 75.0339 33.5699C76.0817 32.3929 77.5029 31.7313 78.985 31.7305C80.4676 31.7305 81.8894 32.3918 82.9377 33.5689C83.9861 34.7459 84.575 36.3424 84.575 38.007ZM91.195 8C87.83 8 83.4275 10.6947 78.975 15.36C74.525 10.72 70.12 8.05614 66.7575 8.05614C65.7325 8.05614 64.8 8.31719 63.9925 8.83649C60.555 11.0625 59.785 17.9986 61.56 26.7032C53.95 29.3418 49 33.5607 49 38.007C49 42.4702 53.975 46.7004 61.6075 49.3193C59.8475 58.0575 60.6325 65.0049 64.0775 67.2281C64.8775 67.753 65.8025 68 66.8325 68C70.195 68 74.6 65.3053 79.0525 60.6344C83.5025 65.2772 87.9075 67.9411 91.27 67.9411C92.295 67.9411 93.2275 67.6884 94.035 67.1691C97.47 64.946 98.2425 58.0098 96.4675 49.3025C104.05 46.6863 109 42.4589 109 38.007C109 33.5439 104.025 29.3137 96.3925 26.6891C98.1525 17.9593 97.3675 11.0063 93.9225 8.78035C93.1275 8.26386 92.2025 8.00281 91.1925 8H91.195ZM91.1825 11.0596V11.0765C91.745 11.0765 92.1975 11.2 92.5775 11.433C94.2425 12.5053 94.965 16.5839 94.4025 21.8302C94.2675 23.1214 94.0475 24.4828 93.7775 25.8723C91.3775 25.2098 88.7625 24.7018 86.01 24.3733C84.36 21.833 82.6475 19.5256 80.9225 17.5046C84.9025 13.3502 88.64 11.0709 91.185 11.0625L91.1825 11.0596ZM66.7575 11.1158C69.2875 11.1158 73.0425 13.3839 77.0325 17.5158C75.3175 19.5368 73.6075 21.8302 71.9825 24.3705C69.215 24.6989 66.5975 25.207 64.2 25.8807C63.92 24.5053 63.7125 23.1747 63.565 21.8947C62.99 16.6512 63.7 12.5754 65.35 11.4891C65.825 11.2365 66.35 11.1326 66.7575 11.1186V11.1158ZM78.9625 19.6772C80.1 20.9909 81.2375 22.4618 82.3625 24.0674C81.2625 24.0112 80.1375 23.9719 79 23.9719C77.85 23.9719 76.7125 24 75.6 24.0674C76.7 22.4618 77.8375 20.9909 78.9625 19.6744V19.6772ZM79 27.0484C80.85 27.0484 82.6925 27.1439 84.505 27.3095C85.52 28.9432 86.51 30.6863 87.4625 32.5305C88.3925 34.327 89.2375 36.1516 90.0075 37.993C89.2375 39.8316 88.3925 41.6702 87.475 43.4667C86.525 45.3193 85.5425 47.0821 84.525 48.7158C82.705 48.8926 80.86 48.9909 79 48.9909C77.15 48.9909 75.3075 48.8926 73.495 48.7298C72.48 47.0961 71.49 45.3502 70.5375 43.5088C69.6075 41.7123 68.7625 39.8877 67.9925 38.0463C68.75 36.2021 69.6075 34.3607 70.525 32.5614C71.475 30.7088 72.4575 28.9516 73.475 27.3179C75.295 27.1382 77.14 27.0428 79 27.0428V27.0484ZM69.9125 27.7614C69.3125 28.8196 68.7125 29.9032 68.1525 31.0175C67.59 32.1123 67.065 33.2126 66.565 34.313C65.9025 32.4716 65.34 30.6358 64.875 28.8477C66.475 28.4267 68.1625 28.0533 69.9125 27.7642V27.7614ZM88.0625 27.7614C89.8 28.0505 91.475 28.407 93.0775 28.8477C92.6275 30.6218 92.065 32.4463 91.4275 34.2737C90.9275 33.1789 90.4025 32.0758 89.8275 30.9782C89.265 29.8779 88.665 28.8056 88.065 27.7614H88.0625ZM95.72 29.6561C96.93 30.0772 98.08 30.546 99.1575 31.054C103.487 33.1312 106.288 35.8484 106.288 38.0042C106.275 40.16 103.475 42.8884 99.145 44.9516C98.095 45.4568 96.945 45.9116 95.7575 46.3354C95.0575 43.6463 94.1425 40.8449 93.0075 37.9705C94.1325 35.1158 95.0325 32.3284 95.72 29.6505V29.6561ZM62.2325 29.6674C62.9275 32.3621 63.845 35.1607 64.9825 38.0323C63.8575 40.887 62.9525 43.6744 62.2675 46.3523C61.0575 45.9312 59.9075 45.4596 58.8425 44.9488C54.5125 42.88 51.7125 40.16 51.7125 38.0042C51.7125 35.8484 54.5125 33.1144 58.8425 31.054C59.8925 30.5488 61.0425 30.094 62.2325 29.6674ZM91.4275 41.6814C92.09 43.5256 92.6525 45.3642 93.1175 47.1495C91.5175 47.5902 89.8275 47.9635 88.0775 48.2442C88.6775 47.1916 89.2775 46.1053 89.84 44.9937C90.4025 43.8989 90.9275 42.7818 91.43 41.6814H91.4275ZM66.565 41.7375C67.065 42.8379 67.59 43.9354 68.165 45.0358C68.74 46.1305 69.3275 47.2028 69.9275 48.2442C68.19 47.9579 66.515 47.5986 64.9125 47.1607C65.3625 45.3923 65.9275 43.5621 66.5625 41.7347L66.565 41.7375ZM93.8 50.1221C94.08 51.506 94.3 52.8393 94.435 54.1165C95.01 59.36 94.3 63.4358 92.65 64.5249C92.2825 64.7775 91.805 64.8842 91.2425 64.8842C88.7125 64.8842 84.9575 62.6189 80.9675 58.4842C82.6825 56.4632 84.3925 54.1726 86.0175 51.6351C88.785 51.3039 91.4025 50.793 93.8 50.1193V50.1221ZM64.225 50.1502C66.625 50.807 69.24 51.3151 71.9925 51.6435C73.6425 54.1839 75.355 56.4912 77.08 58.5095C73.0925 62.6723 69.35 64.9516 66.805 64.9516C66.255 64.9375 65.79 64.8112 65.4225 64.5811C63.7575 63.5144 63.035 59.433 63.5975 54.1867C63.7325 52.8954 63.9525 51.5368 64.2225 50.1502H64.225ZM75.625 51.9467C76.725 52.0028 77.85 52.0421 78.9875 52.0421C80.1375 52.0421 81.275 52.014 82.3875 51.9467C81.2875 53.5523 80.15 55.0204 79.025 56.3397C77.8875 55.0204 76.75 53.5523 75.625 51.9467Z" fill="#61DAFB"/>
<defs>
<filter id="filter0_d_32_2" x="0" y="0" width="158" height="108" filterUnits="userSpaceOnUse" color-interpolation-filters="sRGB">
<feFlood flood-opacity="0" result="BackgroundImageFix"/>
<feColorMatrix in="SourceAlpha" type="matrix" values="0 0 0 0 0 0 0 0 0 0 0 0 0 0 0 0 0 0 127 0" result="hardAlpha"/>
<feOffset dy="4"/>
<feGaussianBlur stdDeviation="2"/>
<feComposite in2="hardAlpha" operator="out"/>
<feColorMatrix type="matrix" values="0 0 0 0 0 0 0 0 0 0 0 0 0 0 0 0 0 0 0.25 0"/>
<feBlend mode="normal" in2="BackgroundImageFix" result="effect1_dropShadow_32_2"/>
<feBlend mode="normal" in="SourceGraphic" in2="effect1_dropShadow_32_2" result="shape"/>
</filter>
</defs>
</svg>
