<svg width="158" height="108" viewBox="0 0 158 108" fill="none" xmlns="http://www.w3.org/2000/svg">
<g filter="url(#filter0_d_32_3)">
<rect x="4" width="150" height="100" rx="50" fill="#ECECEC"/>
<path d="M41.896 73.376V82.608C41.896 82.736 41.832 82.8 41.704 82.8H40.28C40.152 82.8 40.088 82.736 40.088 82.608V73.376H37.576C37.5227 73.376 37.4747 73.36 37.432 73.328C37.4 73.2853 37.384 73.232 37.384 73.168V71.888C37.384 71.8347 37.4 71.792 37.432 71.76C37.4747 71.7173 37.5227 71.696 37.576 71.696H44.424C44.4773 71.696 44.52 71.7173 44.552 71.76C44.5947 71.792 44.616 71.8347 44.616 71.888V73.168C44.616 73.3067 44.552 73.376 44.424 73.376H41.896ZM47.064 85.184C46.8507 85.184 46.6587 85.1733 46.488 85.152C46.328 85.1307 46.168 85.088 46.008 85.024C45.9547 85.0027 45.912 84.9707 45.88 84.928C45.848 84.896 45.8373 84.848 45.848 84.784L45.944 83.728C45.944 83.5893 46.0027 83.5413 46.12 83.584C46.2587 83.6267 46.3973 83.6533 46.536 83.664C46.6747 83.6853 46.8027 83.696 46.92 83.696C47.08 83.696 47.2133 83.6693 47.32 83.616C47.4267 83.5733 47.512 83.504 47.576 83.408C47.6293 83.3013 47.6827 83.1893 47.736 83.072C47.7893 82.9653 47.8373 82.848 47.88 82.72C47.9333 82.592 47.9867 82.4427 48.04 82.272C48.104 82.112 48.1573 81.952 48.2 81.792L45.768 74.752C45.7253 74.624 45.768 74.56 45.896 74.56H47.224C47.3307 74.56 47.3947 74.624 47.416 74.752L49.016 79.52L50.648 74.752C50.6693 74.624 50.7333 74.56 50.84 74.56H52.184C52.3013 74.56 52.3387 74.624 52.296 74.752L49.384 83.056C49.1067 83.8347 48.7867 84.384 48.424 84.704C48.0613 85.024 47.608 85.184 47.064 85.184ZM57.416 74.384C57.9067 74.384 58.3333 74.4907 58.696 74.704C59.0693 74.9067 59.384 75.2 59.64 75.584C59.9067 75.9573 60.1093 76.4213 60.248 76.976C60.3867 77.52 60.456 78.1013 60.456 78.72C60.456 79.1893 60.3813 79.712 60.232 80.288C60.0933 80.8533 59.8907 81.3387 59.624 81.744C59.368 82.1493 59.0533 82.4587 58.68 82.672C58.3173 82.896 57.896 83.008 57.416 83.008C57.064 83.008 56.728 82.9227 56.408 82.752C56.0987 82.592 55.8267 82.3467 55.592 82.016V84.992C55.592 85.0773 55.5813 85.1307 55.56 85.152C55.5387 85.1733 55.496 85.184 55.432 85.184H54.056C53.9387 85.184 53.88 85.12 53.88 84.992V74.816C53.88 74.656 53.9547 74.576 54.104 74.576H55.384C55.5227 74.576 55.592 74.656 55.592 74.816V75.44C55.7733 75.12 56.0347 74.864 56.376 74.672C56.7173 74.48 57.064 74.384 57.416 74.384ZM57.048 81.376C57.56 81.376 57.9547 81.1093 58.232 80.576C58.5093 80.0427 58.648 79.424 58.648 78.72C58.648 77.9627 58.504 77.3227 58.216 76.8C57.928 76.2667 57.5387 76 57.048 76C56.8453 76 56.648 76.0693 56.456 76.208C56.264 76.3467 56.0933 76.544 55.944 76.8C55.8053 77.056 55.6987 77.3653 55.624 77.728C55.5493 78.08 55.512 78.4107 55.512 78.72C55.512 79.4773 55.6453 80.112 55.912 80.624C56.1893 81.1253 56.568 81.376 57.048 81.376ZM68.184 79.168C68.184 79.2533 68.1627 79.3173 68.12 79.36C68.088 79.392 68.04 79.408 67.976 79.408H63.592C63.6027 79.9733 63.7467 80.4587 64.024 80.864C64.312 81.2587 64.7707 81.456 65.4 81.456C65.784 81.456 66.12 81.4133 66.408 81.328C66.7067 81.232 67.0107 81.072 67.32 80.848C67.4053 80.8053 67.4533 80.8107 67.464 80.864C67.4853 80.9173 67.496 80.9813 67.496 81.056V82.192C67.496 82.288 67.48 82.3573 67.448 82.4C67.416 82.4533 67.3627 82.5067 67.288 82.56C67.0107 82.7093 66.728 82.8267 66.44 82.912C66.1627 82.9973 65.816 83.04 65.4 83.04C64.184 83.04 63.2773 82.6507 62.68 81.872C62.0827 81.0933 61.784 80.064 61.784 78.784C61.784 78.24 61.848 77.712 61.976 77.2C62.104 76.6773 62.3013 76.208 62.568 75.792C62.8453 75.376 63.192 75.0347 63.608 74.768C64.024 74.5013 64.504 74.368 65.048 74.368C65.624 74.368 66.1093 74.4907 66.504 74.736C66.9093 74.9813 67.2347 75.3067 67.48 75.712C67.736 76.1067 67.9173 76.56 68.024 77.072C68.1413 77.584 68.2 78.1387 68.2 78.736C68.2 78.8107 68.1947 78.896 68.184 78.992C68.184 79.0773 68.184 79.136 68.184 79.168ZM65.016 75.904C64.76 75.904 64.5307 75.9787 64.328 76.128C64.136 76.2667 63.9813 76.4587 63.864 76.704C63.7573 76.9387 63.6827 77.1573 63.64 77.36C63.608 77.552 63.592 77.7067 63.592 77.824H66.456C66.456 77.7067 66.4347 77.552 66.392 77.36C66.36 77.1573 66.2853 76.9387 66.168 76.704C66.0613 76.4587 65.9067 76.2667 65.704 76.128C65.5013 75.9787 65.272 75.904 65.016 75.904ZM74.76 82.464C74.216 82.8373 73.5333 83.0293 72.712 83.04C72.4987 83.04 72.2747 83.0293 72.04 83.008C71.816 82.9867 71.6027 82.96 71.4 82.928C71.208 82.9067 71.0107 82.8693 70.808 82.816C70.616 82.7733 70.472 82.7307 70.376 82.688C70.3333 82.6773 70.2853 82.6507 70.232 82.608C70.1893 82.5653 70.1733 82.5067 70.184 82.432L70.28 81.36C70.2907 81.264 70.3067 81.2053 70.328 81.184C70.3493 81.1627 70.4187 81.168 70.536 81.2C70.9093 81.3067 71.2773 81.3867 71.64 81.44C72.0133 81.4827 72.3493 81.504 72.648 81.504C73.1173 81.504 73.464 81.424 73.688 81.264C73.9227 81.0933 74.04 80.864 74.04 80.576C74.04 80.4267 73.9813 80.272 73.864 80.112C73.7467 79.9413 73.5493 79.7707 73.272 79.6C72.984 79.4293 72.6853 79.2587 72.376 79.088C72.0667 78.9067 71.7627 78.736 71.464 78.576C71.1227 78.384 70.8347 78.1173 70.6 77.776C70.376 77.4347 70.264 77.104 70.264 76.784C70.264 76.3893 70.344 76.0373 70.504 75.728C70.664 75.408 70.8773 75.1413 71.144 74.928C71.4107 74.7147 71.7147 74.56 72.056 74.464C72.408 74.368 72.776 74.32 73.16 74.32C73.3627 74.32 73.5707 74.3307 73.784 74.352C74.008 74.3733 74.2213 74.4053 74.424 74.448C74.6373 74.48 74.824 74.5227 74.984 74.576C75.1547 74.6187 75.2827 74.6667 75.368 74.72C75.4213 74.7413 75.448 74.768 75.448 74.8C75.4587 74.8213 75.4587 74.8587 75.448 74.912L75.352 75.968C75.3413 76.0747 75.3093 76.144 75.256 76.176C75.2027 76.1973 75.128 76.1867 75.032 76.144C74.8293 76.0693 74.6 76 74.344 75.936C74.1413 75.8933 73.944 75.8667 73.752 75.856C73.5707 75.8347 73.4053 75.824 73.256 75.824C72.8187 75.824 72.5093 75.904 72.328 76.064C72.1467 76.224 72.056 76.4 72.056 76.592C72.056 76.7733 72.1573 76.96 72.36 77.152C72.5627 77.3333 72.8187 77.504 73.128 77.664C73.4693 77.8347 73.7787 78.0053 74.056 78.176C74.3333 78.336 74.5413 78.4693 74.68 78.576C75.064 78.8427 75.352 79.136 75.544 79.456C75.736 79.7653 75.832 80.0907 75.832 80.432C75.832 81.264 75.4747 81.9413 74.76 82.464ZM83.736 82.768C83.6293 82.8107 83.496 82.848 83.336 82.88C83.176 82.912 82.9947 82.9387 82.792 82.96C82.5893 82.9813 82.408 82.992 82.248 82.992C82.088 83.0027 81.912 83.0027 81.72 82.992C81.1013 82.9493 80.5733 82.8107 80.136 82.576C79.7093 82.3413 79.3307 82.0373 79 81.664C78.68 81.2907 78.4347 80.848 78.264 80.336C78.104 79.824 78.024 79.2693 78.024 78.672C78.024 78.0533 78.1253 77.4827 78.328 76.96C78.5307 76.4267 78.808 75.968 79.16 75.584C79.5227 75.2 79.928 74.9067 80.376 74.704C80.8347 74.4907 81.3787 74.384 82.008 74.384C82.264 74.384 82.5467 74.4107 82.856 74.464C83.176 74.5067 83.4853 74.5813 83.784 74.688C83.8267 74.6987 83.8587 74.72 83.88 74.752C83.9013 74.7733 83.9067 74.832 83.896 74.928L83.752 76.048C83.7413 76.1227 83.72 76.176 83.688 76.208C83.656 76.24 83.5973 76.2453 83.512 76.224C83.288 76.1387 83.0427 76.0747 82.776 76.032C82.5093 75.9893 82.2427 75.968 81.976 75.968C81.1973 75.968 80.632 76.224 80.28 76.736C79.9387 77.248 79.768 77.8933 79.768 78.672C79.768 79.4187 79.9387 80.0373 80.28 80.528C80.632 81.0187 81.144 81.312 81.816 81.408C82.424 81.4827 83.0107 81.4347 83.576 81.264C83.672 81.2213 83.7307 81.216 83.752 81.248C83.784 81.28 83.8053 81.328 83.816 81.392L83.896 82.512C83.9067 82.5867 83.9013 82.64 83.88 82.672C83.8693 82.7147 83.8213 82.7467 83.736 82.768ZM85.912 82.8C85.8587 82.8 85.8107 82.7787 85.768 82.736C85.736 82.704 85.72 82.656 85.72 82.592V81.344C85.72 81.2907 85.736 81.248 85.768 81.216C85.8107 81.1733 85.8587 81.152 85.912 81.152H86.92V76.736V76.176H85.608C85.5547 76.176 85.5067 76.16 85.464 76.128C85.432 76.0853 85.416 76.032 85.416 75.968V74.768C85.416 74.7147 85.432 74.672 85.464 74.64C85.5067 74.5973 85.5547 74.576 85.608 74.576H88.232C88.2747 74.576 88.3067 74.592 88.328 74.624C88.36 74.6453 88.376 74.6773 88.376 74.72V76.08C88.4827 75.856 88.5947 75.664 88.712 75.504C88.84 75.3333 88.9733 75.184 89.112 75.056C89.2613 74.9173 89.4267 74.7947 89.608 74.688C89.8 74.5707 90.0773 74.4693 90.44 74.384C90.8987 74.3093 91.3413 74.32 91.768 74.416C92.2053 74.512 92.568 74.6773 92.856 74.912C92.9093 74.9653 92.9307 75.0133 92.92 75.056C92.9093 75.0987 92.8987 75.1413 92.888 75.184L92.36 76.272C92.3387 76.336 92.3013 76.3787 92.248 76.4C92.2053 76.4213 92.1467 76.4107 92.072 76.368C91.8267 76.2293 91.5547 76.1333 91.256 76.08C90.9573 76.0267 90.664 76.0267 90.376 76.08C89.8747 76.176 89.48 76.416 89.192 76.8C88.904 77.184 88.728 77.5733 88.664 77.968C88.6 78.3627 88.568 78.8267 88.568 79.36V81.152H90.232C90.2853 81.152 90.328 81.1733 90.36 81.216C90.4027 81.248 90.424 81.2907 90.424 81.344V82.592C90.424 82.7307 90.36 82.8 90.232 82.8H85.912ZM94.072 82.8C94.0187 82.8 93.9707 82.7787 93.928 82.736C93.896 82.704 93.88 82.656 93.88 82.592V81.344C93.88 81.2907 93.896 81.248 93.928 81.216C93.9707 81.1733 94.0187 81.152 94.072 81.152H96.248V76.224H94.36C94.3067 76.224 94.2587 76.208 94.216 76.176C94.184 76.1333 94.168 76.08 94.168 76.016V74.768C94.168 74.7147 94.184 74.672 94.216 74.64C94.2587 74.5973 94.3067 74.576 94.36 74.576H97.784C97.8373 74.576 97.88 74.5973 97.912 74.64C97.9547 74.672 97.976 74.7147 97.976 74.768V81.152H99.944C99.9973 81.152 100.04 81.1733 100.072 81.216C100.115 81.248 100.136 81.2907 100.136 81.344V82.592C100.136 82.7307 100.072 82.8 99.944 82.8H94.072ZM96.888 73.312C96.5467 73.312 96.2587 73.1947 96.024 72.96C95.7893 72.7253 95.672 72.4427 95.672 72.112C95.672 71.76 95.7893 71.4667 96.024 71.232C96.2587 70.9867 96.5467 70.864 96.888 70.864C97.24 70.864 97.5333 70.9867 97.768 71.232C98.0133 71.4667 98.136 71.76 98.136 72.112C98.136 72.4427 98.0133 72.7253 97.768 72.96C97.5333 73.1947 97.24 73.312 96.888 73.312ZM105.416 74.384C105.907 74.384 106.333 74.4907 106.696 74.704C107.069 74.9067 107.384 75.2 107.64 75.584C107.907 75.9573 108.109 76.4213 108.248 76.976C108.387 77.52 108.456 78.1013 108.456 78.72C108.456 79.1893 108.381 79.712 108.232 80.288C108.093 80.8533 107.891 81.3387 107.624 81.744C107.368 82.1493 107.053 82.4587 106.68 82.672C106.317 82.896 105.896 83.008 105.416 83.008C105.064 83.008 104.728 82.9227 104.408 82.752C104.099 82.592 103.827 82.3467 103.592 82.016V84.992C103.592 85.0773 103.581 85.1307 103.56 85.152C103.539 85.1733 103.496 85.184 103.432 85.184H102.056C101.939 85.184 101.88 85.12 101.88 84.992V74.816C101.88 74.656 101.955 74.576 102.104 74.576H103.384C103.523 74.576 103.592 74.656 103.592 74.816V75.44C103.773 75.12 104.035 74.864 104.376 74.672C104.717 74.48 105.064 74.384 105.416 74.384ZM105.048 81.376C105.56 81.376 105.955 81.1093 106.232 80.576C106.509 80.0427 106.648 79.424 106.648 78.72C106.648 77.9627 106.504 77.3227 106.216 76.8C105.928 76.2667 105.539 76 105.048 76C104.845 76 104.648 76.0693 104.456 76.208C104.264 76.3467 104.093 76.544 103.944 76.8C103.805 77.056 103.699 77.3653 103.624 77.728C103.549 78.08 103.512 78.4107 103.512 78.72C103.512 79.4773 103.645 80.112 103.912 80.624C104.189 81.1253 104.568 81.376 105.048 81.376ZM116.136 82.624C115.741 82.7627 115.341 82.864 114.936 82.928C114.541 82.992 114.205 83.0187 113.928 83.008C113.373 83.008 112.931 82.912 112.6 82.72C112.269 82.5387 112.04 82.3253 111.912 82.08C111.763 81.8027 111.672 81.4773 111.64 81.104C111.608 80.7307 111.592 80.224 111.592 79.584V76.56H109.832C109.779 76.56 109.731 76.544 109.688 76.512C109.656 76.4693 109.64 76.4213 109.64 76.368V75.104C109.64 75.0507 109.656 75.008 109.688 74.976C109.731 74.9333 109.779 74.912 109.832 74.912H111.592V72.592C111.592 72.5387 111.613 72.496 111.656 72.464C111.699 72.4213 111.747 72.4 111.8 72.4H113.096C113.16 72.4 113.208 72.4213 113.24 72.464C113.283 72.496 113.304 72.5387 113.304 72.592V74.912H115.992C116.045 74.912 116.088 74.9333 116.12 74.976C116.163 75.008 116.184 75.0507 116.184 75.104V76.368C116.184 76.4213 116.163 76.4693 116.12 76.512C116.088 76.544 116.045 76.56 115.992 76.56H113.304V79.68C113.304 80.3733 113.32 80.816 113.352 81.008C113.373 81.2107 113.469 81.3333 113.64 81.376C113.821 81.4187 114.061 81.44 114.36 81.44C114.605 81.44 114.861 81.4133 115.128 81.36C115.395 81.3067 115.656 81.2373 115.912 81.152C115.965 81.1307 116.003 81.1307 116.024 81.152C116.045 81.1627 116.067 81.2107 116.088 81.296L116.216 82.432C116.227 82.5067 116.2 82.5707 116.136 82.624Z" fill="black"/>
<path d="M54.9346 10.8696C53.6367 10.8696 52.5908 11.9154 52.5908 13.2133V58.5258C52.5908 59.8237 53.6367 60.8696 54.9346 60.8696H100.247C101.545 60.8696 102.591 59.8237 102.591 58.5258V13.2133C102.591 11.9154 101.545 10.8696 100.247 10.8696H54.9346ZM91.1075 31.1821C92.3825 31.1821 93.5117 31.2592 94.4971 31.4133C95.4265 31.5526 96.3386 31.79 97.2179 32.1217V37.2425C96.7958 36.9506 96.3473 36.6988 95.8783 36.4904C95.3946 36.2728 94.8953 36.0917 94.3846 35.9487C93.4171 35.6791 92.4181 35.539 91.4137 35.5321C90.7887 35.5321 90.22 35.5904 89.7075 35.7112C89.2507 35.8089 88.8125 35.9791 88.4096 36.2154C88.0554 36.4321 87.7846 36.6925 87.5908 36.9946C87.3959 37.299 87.2945 37.6539 87.2992 38.0154C87.2992 38.4237 87.4096 38.7925 87.6242 39.1175C87.8408 39.4425 88.1492 39.7508 88.5471 40.0425C88.945 40.3342 89.4283 40.6175 89.9971 40.8967C90.5658 41.1779 91.2096 41.4675 91.9262 41.7633C92.9054 42.1737 93.7846 42.6112 94.5637 43.0716C95.3429 43.5341 96.0117 44.0571 96.57 44.6404C97.1283 45.2216 97.5533 45.8862 97.8492 46.6341C98.145 47.3821 98.295 48.2508 98.295 49.2446C98.295 50.6133 98.0346 51.7654 97.5179 52.6946C97.0131 53.611 96.2886 54.3877 95.4096 54.955C94.462 55.5558 93.4118 55.9767 92.3117 56.1966C91.1325 56.4466 89.8887 56.5717 88.5825 56.5717C87.2969 56.5773 86.0135 56.4629 84.7492 56.23C83.6552 56.0408 82.5943 55.6949 81.5992 55.2029V49.7237C83.482 51.3261 85.8705 52.2115 88.3429 52.2237C89.0367 52.2237 89.6429 52.1612 90.1596 52.0362C90.6783 51.9112 91.1096 51.7362 91.4575 51.5154C91.8033 51.2904 92.0616 51.0279 92.2346 50.7237C92.4257 50.3696 92.5126 49.9686 92.4853 49.5671C92.4581 49.1656 92.3177 48.78 92.0804 48.455C91.7709 48.0454 91.3923 47.6929 90.9617 47.4133C90.4276 47.0593 89.8653 46.7499 89.2804 46.4883C88.5872 46.1717 87.8877 45.8689 87.1825 45.58C85.27 44.7821 83.845 43.805 82.9054 42.6529C81.9679 41.5008 81.4971 40.1071 81.4971 38.4758C81.4971 37.1967 81.7533 36.0987 82.2658 35.18C82.7783 34.2612 83.4742 33.505 84.3575 32.9112C85.2918 32.2949 86.329 31.8511 87.42 31.6008C88.6283 31.3159 89.8661 31.1754 91.1075 31.1821ZM59.6221 31.5737H79.545V36.0862H72.395V56.1821H66.7346V36.0862H59.6221V31.5737Z" fill="#3178C6"/>
</g>
<defs>
<filter id="filter0_d_32_3" x="0" y="0" width="158" height="108" filterUnits="userSpaceOnUse" color-interpolation-filters="sRGB">
<feFlood flood-opacity="0" result="BackgroundImageFix"/>
<feColorMatrix in="SourceAlpha" type="matrix" values="0 0 0 0 0 0 0 0 0 0 0 0 0 0 0 0 0 0 127 0" result="hardAlpha"/>
<feOffset dy="4"/>
<feGaussianBlur stdDeviation="2"/>
<feComposite in2="hardAlpha" operator="out"/>
<feColorMatrix type="matrix" values="0 0 0 0 0 0 0 0 0 0 0 0 0 0 0 0 0 0 0.25 0"/>
<feBlend mode="normal" in2="BackgroundImageFix" result="effect1_dropShadow_32_3"/>
<feBlend mode="normal" in="SourceGraphic" in2="effect1_dropShadow_32_3" result="shape"/>
</filter>
</defs>
</svg>
